<svg width="24" height="40" viewBox="0 0 24 41" fill="none" xmlns="http://www.w3.org/2000/svg">
<path d="M14.2639 40.2637H7.7745C6.69057 40.2637 5.80883 39.3933 5.80883 38.3234V23.8751H2.0228C0.938867 23.8751 0.0571289 23.0045 0.0571289 21.9348V15.7437C0.0571289 14.6738 0.938867 13.8034 2.0228 13.8034H5.80883V10.7031C5.80883 7.62909 6.78672 5.01373 8.63645 3.14026C10.4945 1.25824 13.0912 0.263672 16.1458 0.263672L21.0949 0.271606C22.1769 0.273438 23.0571 1.1438 23.0571 2.21191V7.96021C23.0571 9.03015 22.1757 9.90051 21.0921 9.90051L17.7599 9.90173C16.7437 9.90173 16.4849 10.1028 16.4296 10.1645C16.3384 10.2667 16.2298 10.5557 16.2298 11.3538V13.8031H20.8417C21.1888 13.8031 21.5252 13.8876 21.8143 14.0469C22.4379 14.3909 22.8256 15.0412 22.8256 15.744L22.8231 21.9351C22.8231 23.0045 21.9414 23.8748 20.8574 23.8748H16.2298V38.3234C16.2298 39.3933 15.3478 40.2637 14.2639 40.2637V40.2637ZM8.18445 37.9187H13.8539V22.8253C13.8539 22.1109 14.4429 21.5298 15.1663 21.5298H20.4475L20.4496 16.1484H15.166C14.4426 16.1484 13.8539 15.5673 13.8539 14.8529V11.3538C13.8539 10.4376 13.9482 9.39575 14.6488 8.61267C15.4953 7.66602 16.8293 7.55676 17.7593 7.55676L20.6815 7.55554V2.61597L16.1439 2.60864C11.235 2.60864 8.18445 5.71045 8.18445 10.7031V14.8529C8.18445 15.567 7.5958 16.1484 6.87236 16.1484H2.43275V21.5298H6.87236C7.5958 21.5298 8.18445 22.1109 8.18445 22.8253V37.9187ZM21.0902 2.61658H21.0905H21.0902Z" fill="#4F4F4F"/>
</svg>
