<svg width="40" height="40" viewBox="0 0 40 41" fill="none" xmlns="http://www.w3.org/2000/svg">
<path d="M29.1724 0.949219H10.8276C4.85718 0.949219 0 5.8064 0 11.7769V30.1219C0 36.092 4.85718 40.9492 10.8276 40.9492H29.1727C35.1428 40.9492 40 36.092 40 30.1219V11.7769C40 5.8064 35.1428 0.949219 29.1724 0.949219V0.949219ZM37.655 30.1219C37.655 34.799 33.8498 38.6042 29.1724 38.6042H10.8276C6.15021 38.6042 2.34497 34.799 2.34497 30.1219V11.7769C2.34497 7.09943 6.15021 3.29419 10.8276 3.29419H29.1727C33.8498 3.29419 37.655 7.09943 37.655 11.7769V30.1219Z" fill="#4F4F4F"/>
<path d="M19.998 10.0121C13.9672 10.0121 9.06085 14.9184 9.06085 20.9493C9.06085 26.9802 13.9672 31.8865 19.998 31.8865C26.0289 31.8865 30.9352 26.9802 30.9352 20.9493C30.9352 14.9184 26.0289 10.0121 19.998 10.0121V10.0121ZM19.998 29.5415C15.2605 29.5415 11.4058 25.6871 11.4058 20.9493C11.4058 16.2117 15.2605 12.3571 19.998 12.3571C24.7359 12.3571 28.5903 16.2117 28.5903 20.9493C28.5903 25.6871 24.7359 29.5415 19.998 29.5415V29.5415Z" fill="#4F4F4F"/>
<path d="M31.1982 6.12769C29.416 6.12769 27.9664 7.57758 27.9664 9.3595C27.9664 11.1417 29.416 12.5916 31.1982 12.5916C32.9804 12.5916 34.4303 11.1417 34.4303 9.3595C34.4303 7.57727 32.9804 6.12769 31.1982 6.12769ZM31.1982 10.2463C30.7093 10.2463 30.3113 9.84839 30.3113 9.3595C30.3113 8.8703 30.7093 8.47266 31.1982 8.47266C31.6874 8.47266 32.0853 8.8703 32.0853 9.3595C32.0853 9.84839 31.6874 10.2463 31.1982 10.2463Z" fill="#4F4F4F"/>
</svg>
