<svg width="254" height="69" viewBox="0 0 254 69" fill="none" xmlns="http://www.w3.org/2000/svg">
<mask id="path-1-inside-1_55_7" fill="white">
<path d="M24.0417 7.50186C24.5639 6.33316 25.4133 5.34066 26.4874 4.64421C27.5614 3.94775 28.814 3.57715 30.0941 3.57715C31.3742 3.57715 32.6269 3.94775 33.7009 4.64421C34.7749 5.34066 35.6243 6.33316 36.1465 7.50186C37.1831 6.74951 38.4154 6.31357 39.6945 6.24674C40.9736 6.1799 42.2446 6.48504 43.354 7.12526C44.4633 7.76548 45.3634 8.71336 45.9455 9.85429C46.5275 10.9952 46.7666 12.2803 46.6338 13.5543C47.9077 13.4214 49.1928 13.6605 50.3337 14.2426C51.4747 14.8246 52.4226 15.7247 53.0628 16.8341C53.703 17.9434 54.0081 19.2145 53.9413 20.4935C53.8745 21.7726 53.4385 23.005 52.6862 24.0415C53.8549 24.5637 54.8474 25.4131 55.5438 26.4872C56.2403 27.5612 56.6109 28.8139 56.6109 30.0939C56.6109 31.374 56.2403 32.6267 55.5438 33.7007C54.8474 34.7747 53.8549 35.6241 52.6862 36.1463C53.4385 37.1829 53.8745 38.4152 53.9413 39.6943C54.0081 40.9734 53.703 42.2444 53.0628 43.3538C52.4226 44.4631 51.4747 45.3632 50.3337 45.9453C49.1928 46.5273 47.9077 46.7664 46.6338 46.6336C46.7666 47.9075 46.5275 49.1926 45.9455 50.3336C45.3634 51.4745 44.4633 52.4224 43.354 53.0626C42.2446 53.7028 40.9736 54.0079 39.6945 53.9411C38.4154 53.8743 37.1831 53.4383 36.1465 52.686C35.6243 53.8547 34.7749 54.8472 33.7009 55.5436C32.6269 56.2401 31.3742 56.6107 30.0941 56.6107C28.814 56.6107 27.5614 56.2401 26.4874 55.5436C25.4133 54.8472 24.5639 53.8547 24.0417 52.686C23.0051 53.4383 21.7728 53.8743 20.4937 53.9411C19.2147 54.0079 17.9436 53.7028 16.8343 53.0626C15.7249 52.4224 14.8248 51.4745 14.2428 50.3336C13.6607 49.1926 13.4216 47.9075 13.5544 46.6336C12.2805 46.7664 10.9954 46.5273 9.85447 45.9453C8.71354 45.3632 7.76566 44.4631 7.12545 43.3538C6.48523 42.2444 6.18009 40.9734 6.24692 39.6943C6.31375 38.4152 6.7497 37.1829 7.50204 36.1463C6.33335 35.6241 5.34084 34.7747 4.64439 33.7007C3.94794 32.6267 3.57733 31.374 3.57733 30.0939C3.57733 28.8139 3.94794 27.5612 4.64439 26.4872C5.34084 25.4131 6.33335 24.5637 7.50204 24.0415C6.7497 23.005 6.31375 21.7726 6.24692 20.4935C6.18009 19.2145 6.48523 17.9434 7.12545 16.8341C7.76566 15.7247 8.71354 14.8246 9.85447 14.2426C10.9954 13.6605 12.2805 13.4214 13.5544 13.5543C13.4216 12.2803 13.6607 10.9952 14.2428 9.85429C14.8248 8.71336 15.7249 7.76548 16.8343 7.12526C17.9436 6.48504 19.2147 6.1799 20.4937 6.24674C21.7728 6.31357 23.0051 6.74951 24.0417 7.50186V7.50186ZM30.0941 6.89198C29.6509 6.89267 29.2123 6.98223 28.8043 7.15539C28.3963 7.32854 28.0272 7.58175 27.7188 7.90006C27.4104 8.21836 27.1689 8.59529 27.0088 9.00854C26.8486 9.42179 26.7729 9.86297 26.7862 10.306L26.8193 10.6076C26.8591 10.8628 26.9154 11.191 26.9983 11.5887C27.1607 12.3875 27.4027 13.3852 27.7043 14.5287C28.3076 16.8092 29.1229 19.5437 29.945 22.1986L30.0941 22.6759L30.2433 22.1986C31.0653 19.547 31.8807 16.8092 32.4839 14.5287C32.7855 13.3852 33.0275 12.3875 33.1899 11.5887C33.2773 11.1652 33.3481 10.7384 33.402 10.3093L33.4087 10.2065C33.4087 9.32747 33.0595 8.48439 32.4379 7.86279C31.8163 7.24119 30.9732 6.89198 30.0941 6.89198V6.89198ZM10.2067 33.4085L10.3062 33.4019L10.6078 33.3687C10.9366 33.3189 11.2637 33.2592 11.5889 33.1897C12.3877 33.0273 13.3854 32.7853 14.5289 32.4837C17.1002 31.7878 19.6573 31.0407 22.1988 30.2431L22.6761 30.0939L22.1988 29.9448C19.6573 29.1471 17.1002 28.4001 14.5289 27.7041C13.5555 27.4421 12.5751 27.2066 11.5889 26.9981C11.1654 26.9107 10.7386 26.8399 10.3095 26.786L10.2067 26.7794C9.32765 26.7794 8.48458 27.1286 7.86298 27.7502C7.24138 28.3718 6.89216 29.2148 6.89216 30.0939C6.89216 30.973 7.24138 31.8161 7.86298 32.4377C8.48458 33.0593 9.32765 33.4085 10.2067 33.4085V33.4085ZM33.4087 49.9813L33.402 49.8819C33.348 49.4528 33.2773 49.026 33.1899 48.6024C32.9819 47.615 32.7465 46.6335 32.4839 45.6591C31.788 43.0879 31.0409 40.5307 30.2433 37.9892L30.0941 37.5119L29.945 37.9892C29.1229 40.6409 28.3076 43.3787 27.7043 45.6591C27.4027 46.8026 27.1607 47.8003 26.9983 48.5991C26.9109 49.0227 26.8402 49.4495 26.7862 49.8785L26.7795 49.9813C26.7795 50.8604 27.1288 51.7034 27.7504 52.325C28.372 52.9466 29.215 53.2959 30.0941 53.2959C30.9732 53.2959 31.8163 52.9466 32.4379 52.325C33.0595 51.7034 33.4087 50.8604 33.4087 49.9813ZM14.5289 42.908L14.6118 42.8517C14.9572 42.5909 15.2922 42.3167 15.6161 42.0297C16.226 41.4861 16.9684 40.7801 17.807 39.9448C19.6869 38.057 21.5291 36.1319 23.3324 34.1708L23.6738 33.8029L23.1866 33.9123C20.5856 34.4929 17.9964 35.125 15.4205 35.8082C14.2803 36.1165 13.2992 36.4048 12.5236 36.6634C12.1124 36.8001 11.7066 36.9527 11.3072 37.1208L11.2177 37.1672C10.8377 37.3832 10.5042 37.6723 10.2363 38.0178C9.96851 38.3633 9.77167 38.7583 9.65714 39.1802C9.54261 39.602 9.51265 40.0424 9.569 40.4758C9.62534 40.9093 9.76687 41.3274 9.98543 41.7059C10.204 42.0845 10.4953 42.4161 10.8425 42.6816C11.1898 42.9471 11.5861 43.1413 12.0087 43.2531C12.4313 43.3648 12.8718 43.3918 13.3049 43.3326C13.738 43.2734 14.1551 43.1291 14.5322 42.908H14.5289ZM18.4931 50.1868C19.2544 50.6263 20.1591 50.7454 21.0082 50.5179C21.8573 50.2904 22.5813 49.7349 23.0208 48.9737L23.0672 48.8842C23.1004 48.8179 23.1368 48.7251 23.1866 48.6058C23.3085 48.2965 23.4212 47.9837 23.5246 47.6677C23.7832 46.8954 24.0715 45.911 24.3798 44.7708C25.0632 42.195 25.6953 39.6058 26.2757 37.0048L26.3851 36.5175L26.0205 36.8556C24.0584 38.6591 22.1323 40.5012 20.2432 42.381C19.5289 43.0915 18.8337 43.821 18.1584 44.5686C17.8714 44.8937 17.5972 45.2299 17.3364 45.5762L17.28 45.6591C16.8405 46.4204 16.7214 47.3251 16.9489 48.1742C17.1764 49.0233 17.7319 49.7472 18.4931 50.1868V50.1868ZM48.9739 23.0206C49.7289 22.578 50.2783 21.8546 50.502 21.0084C50.7257 20.1622 50.6057 19.2619 50.168 18.5039C49.7304 17.7459 49.0107 17.1918 48.166 16.9625C47.3213 16.7331 46.4202 16.8472 45.6593 17.2798L45.5764 17.3362C45.231 17.5968 44.8959 17.871 44.5721 18.1582C43.8229 18.833 43.0924 19.5282 42.3812 20.243C40.5014 22.1309 38.6592 24.056 36.8558 26.017L36.5177 26.3849L37.005 26.2755C39.6049 25.6951 42.1929 25.063 44.7677 24.3796C45.9112 24.0714 46.8956 23.783 47.6679 23.5245C48.0792 23.388 48.485 23.2354 48.8844 23.067C48.9146 23.0524 48.9445 23.037 48.9739 23.0206V23.0206ZM41.6951 10.001C40.9338 9.56152 40.0291 9.44241 39.18 9.66992C38.3309 9.89742 37.6069 10.4529 37.1674 11.2142L37.121 11.3037C37.0878 11.37 37.0514 11.4628 37.0017 11.5821C36.8797 11.8914 36.767 12.2042 36.6636 12.5201C36.405 13.2924 36.1167 14.2768 35.8084 15.4203C35.125 17.9951 34.4929 20.5832 33.9125 23.1831L33.8031 23.6703L34.1677 23.3322C36.1298 21.5288 38.0559 19.6866 39.945 17.8068C40.7803 16.9683 41.4863 16.2258 42.0299 15.6192C42.3169 15.2942 42.5911 14.9581 42.8519 14.6116L42.9082 14.5287C43.3477 13.7674 43.4668 12.8627 43.2393 12.0136C43.0118 11.1645 42.4563 10.4406 41.6951 10.001V10.001ZM49.9815 33.4085C50.8606 33.4085 51.7036 33.0593 52.3252 32.4377C52.9468 31.8161 53.2961 30.973 53.2961 30.0939C53.2961 29.2148 52.9468 28.3718 52.3252 27.7502C51.7036 27.1286 50.8606 26.7794 49.9815 26.7794L49.8821 26.786C49.453 26.84 49.0262 26.9107 48.6026 26.9981C47.8005 27.1605 46.8028 27.4025 45.6593 27.7041C43.3789 28.3074 40.6444 29.1228 37.9894 29.9448L37.5121 30.0939L37.9894 30.2431C40.641 31.0651 43.3789 31.8805 45.6593 32.4837C46.8028 32.7853 47.8005 33.0273 48.5993 33.1897C49.0229 33.2771 49.4497 33.3479 49.8787 33.4019L49.9815 33.4085ZM10.0012 18.4929C9.77984 18.8772 9.63782 19.302 9.58357 19.7422C9.52933 20.1823 9.56397 20.6289 9.68544 21.0554C9.8069 21.4819 10.0127 21.8797 10.2907 22.2253C10.5687 22.5708 10.9132 22.8571 11.3038 23.067L11.5823 23.1831C11.8209 23.2825 12.1325 23.3952 12.5203 23.5245C13.2926 23.783 14.277 24.0714 15.4172 24.3796C17.9931 25.0628 20.5823 25.6949 23.1832 26.2755L23.6705 26.3849L23.3291 26.017C21.5269 24.0559 19.6858 22.1309 17.807 20.243C17.0969 19.5283 16.3674 18.8331 15.6194 18.1582C15.2944 17.8711 14.9583 17.5969 14.6118 17.3362L14.5289 17.2798C13.7676 16.8403 12.8629 16.7212 12.0138 16.9487C11.1647 17.1762 10.4408 17.7317 10.0012 18.4929V18.4929ZM17.28 14.5287L17.3364 14.6116C17.5971 14.957 17.8713 15.292 18.1584 15.6159C18.702 16.2258 19.408 16.9683 20.2432 17.8068C22.131 19.6867 24.0561 21.5289 26.0172 23.3322L26.3851 23.6703L26.2757 23.1831C25.6953 20.5832 25.0632 17.9951 24.3798 15.4203C24.0715 14.2768 23.7832 13.2924 23.5246 12.5201C23.3881 12.1088 23.2355 11.703 23.0672 11.3037L23.0208 11.2142C22.8048 10.8342 22.5157 10.5007 22.1702 10.2328C21.8248 9.96501 21.4297 9.76817 21.0079 9.65364C20.586 9.53911 20.1457 9.50915 19.7122 9.5655C19.2787 9.62184 18.8607 9.76337 18.4821 9.98194C18.1035 10.2005 17.772 10.4918 17.5064 10.839C17.2409 11.1863 17.0467 11.5826 16.935 12.0052C16.8232 12.4278 16.7962 12.8683 16.8554 13.3014C16.9146 13.7345 17.0589 14.1516 17.28 14.5287V14.5287ZM50.187 41.6949C50.6265 40.9336 50.7456 40.0289 50.5181 39.1798C50.2906 38.3307 49.7351 37.6067 48.9739 37.1672L48.8844 37.1208C48.485 36.9525 48.0792 36.7999 47.6679 36.6634C46.8956 36.4048 45.9112 36.1165 44.7677 35.8082C42.1929 35.1249 39.6049 34.4928 37.005 33.9123L36.5177 33.8029L36.8558 34.1708C38.6592 36.1319 40.5014 38.0569 42.3812 39.9448C43.2198 40.7801 43.9622 41.4861 44.5688 42.0297C44.8937 42.3169 45.2298 42.5911 45.5764 42.8517L45.6593 42.908C46.4206 43.3475 47.3253 43.4666 48.1744 43.2391C49.0235 43.0116 49.7474 42.4562 50.187 41.6949ZM37.1674 48.9737C37.61 49.7287 38.3334 50.2781 39.1796 50.5018C40.0258 50.7255 40.9261 50.6055 41.6841 50.1678C42.4421 49.7302 42.9962 49.0105 43.2256 48.1658C43.4549 47.3211 43.3408 46.42 42.9082 45.6591L42.8519 45.5762C42.5909 45.231 42.3167 44.896 42.0299 44.5719C41.355 43.8228 40.6598 43.0922 39.945 42.381C38.0573 40.501 36.1322 38.6589 34.171 36.8556L33.8031 36.5175L33.9125 37.0048C34.4929 39.6047 35.125 42.1927 35.8084 44.7675C36.1167 45.911 36.405 46.8954 36.6636 47.6677C36.8 48.0791 36.9526 48.4848 37.121 48.8842C37.1357 48.9144 37.1511 48.9443 37.1674 48.9737V48.9737ZM30.0941 35.0658C31.4127 35.0658 32.6773 34.5419 33.6097 33.6095C34.5421 32.6771 35.066 31.4125 35.066 30.0939C35.066 28.7753 34.5421 27.5107 33.6097 26.5783C32.6773 25.6459 31.4127 25.1221 30.0941 25.1221C28.7755 25.1221 27.5109 25.6459 26.5785 26.5783C25.6461 27.5107 25.1223 28.7753 25.1223 30.0939C25.1223 31.4125 25.6461 32.6771 26.5785 33.6095C27.5109 34.5419 28.7755 35.0658 30.0941 35.0658V35.0658Z"/>
</mask>
<path d="M24.0417 7.50186C24.5639 6.33316 25.4133 5.34066 26.4874 4.64421C27.5614 3.94775 28.814 3.57715 30.0941 3.57715C31.3742 3.57715 32.6269 3.94775 33.7009 4.64421C34.7749 5.34066 35.6243 6.33316 36.1465 7.50186C37.1831 6.74951 38.4154 6.31357 39.6945 6.24674C40.9736 6.1799 42.2446 6.48504 43.354 7.12526C44.4633 7.76548 45.3634 8.71336 45.9455 9.85429C46.5275 10.9952 46.7666 12.2803 46.6338 13.5543C47.9077 13.4214 49.1928 13.6605 50.3337 14.2426C51.4747 14.8246 52.4226 15.7247 53.0628 16.8341C53.703 17.9434 54.0081 19.2145 53.9413 20.4935C53.8745 21.7726 53.4385 23.005 52.6862 24.0415C53.8549 24.5637 54.8474 25.4131 55.5438 26.4872C56.2403 27.5612 56.6109 28.8139 56.6109 30.0939C56.6109 31.374 56.2403 32.6267 55.5438 33.7007C54.8474 34.7747 53.8549 35.6241 52.6862 36.1463C53.4385 37.1829 53.8745 38.4152 53.9413 39.6943C54.0081 40.9734 53.703 42.2444 53.0628 43.3538C52.4226 44.4631 51.4747 45.3632 50.3337 45.9453C49.1928 46.5273 47.9077 46.7664 46.6338 46.6336C46.7666 47.9075 46.5275 49.1926 45.9455 50.3336C45.3634 51.4745 44.4633 52.4224 43.354 53.0626C42.2446 53.7028 40.9736 54.0079 39.6945 53.9411C38.4154 53.8743 37.1831 53.4383 36.1465 52.686C35.6243 53.8547 34.7749 54.8472 33.7009 55.5436C32.6269 56.2401 31.3742 56.6107 30.0941 56.6107C28.814 56.6107 27.5614 56.2401 26.4874 55.5436C25.4133 54.8472 24.5639 53.8547 24.0417 52.686C23.0051 53.4383 21.7728 53.8743 20.4937 53.9411C19.2147 54.0079 17.9436 53.7028 16.8343 53.0626C15.7249 52.4224 14.8248 51.4745 14.2428 50.3336C13.6607 49.1926 13.4216 47.9075 13.5544 46.6336C12.2805 46.7664 10.9954 46.5273 9.85447 45.9453C8.71354 45.3632 7.76566 44.4631 7.12545 43.3538C6.48523 42.2444 6.18009 40.9734 6.24692 39.6943C6.31375 38.4152 6.7497 37.1829 7.50204 36.1463C6.33335 35.6241 5.34084 34.7747 4.64439 33.7007C3.94794 32.6267 3.57733 31.374 3.57733 30.0939C3.57733 28.8139 3.94794 27.5612 4.64439 26.4872C5.34084 25.4131 6.33335 24.5637 7.50204 24.0415C6.7497 23.005 6.31375 21.7726 6.24692 20.4935C6.18009 19.2145 6.48523 17.9434 7.12545 16.8341C7.76566 15.7247 8.71354 14.8246 9.85447 14.2426C10.9954 13.6605 12.2805 13.4214 13.5544 13.5543C13.4216 12.2803 13.6607 10.9952 14.2428 9.85429C14.8248 8.71336 15.7249 7.76548 16.8343 7.12526C17.9436 6.48504 19.2147 6.1799 20.4937 6.24674C21.7728 6.31357 23.0051 6.74951 24.0417 7.50186V7.50186ZM30.0941 6.89198C29.6509 6.89267 29.2123 6.98223 28.8043 7.15539C28.3963 7.32854 28.0272 7.58175 27.7188 7.90006C27.4104 8.21836 27.1689 8.59529 27.0088 9.00854C26.8486 9.42179 26.7729 9.86297 26.7862 10.306L26.8193 10.6076C26.8591 10.8628 26.9154 11.191 26.9983 11.5887C27.1607 12.3875 27.4027 13.3852 27.7043 14.5287C28.3076 16.8092 29.1229 19.5437 29.945 22.1986L30.0941 22.6759L30.2433 22.1986C31.0653 19.547 31.8807 16.8092 32.4839 14.5287C32.7855 13.3852 33.0275 12.3875 33.1899 11.5887C33.2773 11.1652 33.3481 10.7384 33.402 10.3093L33.4087 10.2065C33.4087 9.32747 33.0595 8.48439 32.4379 7.86279C31.8163 7.24119 30.9732 6.89198 30.0941 6.89198V6.89198ZM10.2067 33.4085L10.3062 33.4019L10.6078 33.3687C10.9366 33.3189 11.2637 33.2592 11.5889 33.1897C12.3877 33.0273 13.3854 32.7853 14.5289 32.4837C17.1002 31.7878 19.6573 31.0407 22.1988 30.2431L22.6761 30.0939L22.1988 29.9448C19.6573 29.1471 17.1002 28.4001 14.5289 27.7041C13.5555 27.4421 12.5751 27.2066 11.5889 26.9981C11.1654 26.9107 10.7386 26.8399 10.3095 26.786L10.2067 26.7794C9.32765 26.7794 8.48458 27.1286 7.86298 27.7502C7.24138 28.3718 6.89216 29.2148 6.89216 30.0939C6.89216 30.973 7.24138 31.8161 7.86298 32.4377C8.48458 33.0593 9.32765 33.4085 10.2067 33.4085V33.4085ZM33.4087 49.9813L33.402 49.8819C33.348 49.4528 33.2773 49.026 33.1899 48.6024C32.9819 47.615 32.7465 46.6335 32.4839 45.6591C31.788 43.0879 31.0409 40.5307 30.2433 37.9892L30.0941 37.5119L29.945 37.9892C29.1229 40.6409 28.3076 43.3787 27.7043 45.6591C27.4027 46.8026 27.1607 47.8003 26.9983 48.5991C26.9109 49.0227 26.8402 49.4495 26.7862 49.8785L26.7795 49.9813C26.7795 50.8604 27.1288 51.7034 27.7504 52.325C28.372 52.9466 29.215 53.2959 30.0941 53.2959C30.9732 53.2959 31.8163 52.9466 32.4379 52.325C33.0595 51.7034 33.4087 50.8604 33.4087 49.9813ZM14.5289 42.908L14.6118 42.8517C14.9572 42.5909 15.2922 42.3167 15.6161 42.0297C16.226 41.4861 16.9684 40.7801 17.807 39.9448C19.6869 38.057 21.5291 36.1319 23.3324 34.1708L23.6738 33.8029L23.1866 33.9123C20.5856 34.4929 17.9964 35.125 15.4205 35.8082C14.2803 36.1165 13.2992 36.4048 12.5236 36.6634C12.1124 36.8001 11.7066 36.9527 11.3072 37.1208L11.2177 37.1672C10.8377 37.3832 10.5042 37.6723 10.2363 38.0178C9.96851 38.3633 9.77167 38.7583 9.65714 39.1802C9.54261 39.602 9.51265 40.0424 9.569 40.4758C9.62534 40.9093 9.76687 41.3274 9.98543 41.7059C10.204 42.0845 10.4953 42.4161 10.8425 42.6816C11.1898 42.9471 11.5861 43.1413 12.0087 43.2531C12.4313 43.3648 12.8718 43.3918 13.3049 43.3326C13.738 43.2734 14.1551 43.1291 14.5322 42.908H14.5289ZM18.4931 50.1868C19.2544 50.6263 20.1591 50.7454 21.0082 50.5179C21.8573 50.2904 22.5813 49.7349 23.0208 48.9737L23.0672 48.8842C23.1004 48.8179 23.1368 48.7251 23.1866 48.6058C23.3085 48.2965 23.4212 47.9837 23.5246 47.6677C23.7832 46.8954 24.0715 45.911 24.3798 44.7708C25.0632 42.195 25.6953 39.6058 26.2757 37.0048L26.3851 36.5175L26.0205 36.8556C24.0584 38.6591 22.1323 40.5012 20.2432 42.381C19.5289 43.0915 18.8337 43.821 18.1584 44.5686C17.8714 44.8937 17.5972 45.2299 17.3364 45.5762L17.28 45.6591C16.8405 46.4204 16.7214 47.3251 16.9489 48.1742C17.1764 49.0233 17.7319 49.7472 18.4931 50.1868V50.1868ZM48.9739 23.0206C49.7289 22.578 50.2783 21.8546 50.502 21.0084C50.7257 20.1622 50.6057 19.2619 50.168 18.5039C49.7304 17.7459 49.0107 17.1918 48.166 16.9625C47.3213 16.7331 46.4202 16.8472 45.6593 17.2798L45.5764 17.3362C45.231 17.5968 44.8959 17.871 44.5721 18.1582C43.8229 18.833 43.0924 19.5282 42.3812 20.243C40.5014 22.1309 38.6592 24.056 36.8558 26.017L36.5177 26.3849L37.005 26.2755C39.6049 25.6951 42.1929 25.063 44.7677 24.3796C45.9112 24.0714 46.8956 23.783 47.6679 23.5245C48.0792 23.388 48.485 23.2354 48.8844 23.067C48.9146 23.0524 48.9445 23.037 48.9739 23.0206V23.0206ZM41.6951 10.001C40.9338 9.56152 40.0291 9.44241 39.18 9.66992C38.3309 9.89742 37.6069 10.4529 37.1674 11.2142L37.121 11.3037C37.0878 11.37 37.0514 11.4628 37.0017 11.5821C36.8797 11.8914 36.767 12.2042 36.6636 12.5201C36.405 13.2924 36.1167 14.2768 35.8084 15.4203C35.125 17.9951 34.4929 20.5832 33.9125 23.1831L33.8031 23.6703L34.1677 23.3322C36.1298 21.5288 38.0559 19.6866 39.945 17.8068C40.7803 16.9683 41.4863 16.2258 42.0299 15.6192C42.3169 15.2942 42.5911 14.9581 42.8519 14.6116L42.9082 14.5287C43.3477 13.7674 43.4668 12.8627 43.2393 12.0136C43.0118 11.1645 42.4563 10.4406 41.6951 10.001V10.001ZM49.9815 33.4085C50.8606 33.4085 51.7036 33.0593 52.3252 32.4377C52.9468 31.8161 53.2961 30.973 53.2961 30.0939C53.2961 29.2148 52.9468 28.3718 52.3252 27.7502C51.7036 27.1286 50.8606 26.7794 49.9815 26.7794L49.8821 26.786C49.453 26.84 49.0262 26.9107 48.6026 26.9981C47.8005 27.1605 46.8028 27.4025 45.6593 27.7041C43.3789 28.3074 40.6444 29.1228 37.9894 29.9448L37.5121 30.0939L37.9894 30.2431C40.641 31.0651 43.3789 31.8805 45.6593 32.4837C46.8028 32.7853 47.8005 33.0273 48.5993 33.1897C49.0229 33.2771 49.4497 33.3479 49.8787 33.4019L49.9815 33.4085ZM10.0012 18.4929C9.77984 18.8772 9.63782 19.302 9.58357 19.7422C9.52933 20.1823 9.56397 20.6289 9.68544 21.0554C9.8069 21.4819 10.0127 21.8797 10.2907 22.2253C10.5687 22.5708 10.9132 22.8571 11.3038 23.067L11.5823 23.1831C11.8209 23.2825 12.1325 23.3952 12.5203 23.5245C13.2926 23.783 14.277 24.0714 15.4172 24.3796C17.9931 25.0628 20.5823 25.6949 23.1832 26.2755L23.6705 26.3849L23.3291 26.017C21.5269 24.0559 19.6858 22.1309 17.807 20.243C17.0969 19.5283 16.3674 18.8331 15.6194 18.1582C15.2944 17.8711 14.9583 17.5969 14.6118 17.3362L14.5289 17.2798C13.7676 16.8403 12.8629 16.7212 12.0138 16.9487C11.1647 17.1762 10.4408 17.7317 10.0012 18.4929V18.4929ZM17.28 14.5287L17.3364 14.6116C17.5971 14.957 17.8713 15.292 18.1584 15.6159C18.702 16.2258 19.408 16.9683 20.2432 17.8068C22.131 19.6867 24.0561 21.5289 26.0172 23.3322L26.3851 23.6703L26.2757 23.1831C25.6953 20.5832 25.0632 17.9951 24.3798 15.4203C24.0715 14.2768 23.7832 13.2924 23.5246 12.5201C23.3881 12.1088 23.2355 11.703 23.0672 11.3037L23.0208 11.2142C22.8048 10.8342 22.5157 10.5007 22.1702 10.2328C21.8248 9.96501 21.4297 9.76817 21.0079 9.65364C20.586 9.53911 20.1457 9.50915 19.7122 9.5655C19.2787 9.62184 18.8607 9.76337 18.4821 9.98194C18.1035 10.2005 17.772 10.4918 17.5064 10.839C17.2409 11.1863 17.0467 11.5826 16.935 12.0052C16.8232 12.4278 16.7962 12.8683 16.8554 13.3014C16.9146 13.7345 17.0589 14.1516 17.28 14.5287V14.5287ZM50.187 41.6949C50.6265 40.9336 50.7456 40.0289 50.5181 39.1798C50.2906 38.3307 49.7351 37.6067 48.9739 37.1672L48.8844 37.1208C48.485 36.9525 48.0792 36.7999 47.6679 36.6634C46.8956 36.4048 45.9112 36.1165 44.7677 35.8082C42.1929 35.1249 39.6049 34.4928 37.005 33.9123L36.5177 33.8029L36.8558 34.1708C38.6592 36.1319 40.5014 38.0569 42.3812 39.9448C43.2198 40.7801 43.9622 41.4861 44.5688 42.0297C44.8937 42.3169 45.2298 42.5911 45.5764 42.8517L45.6593 42.908C46.4206 43.3475 47.3253 43.4666 48.1744 43.2391C49.0235 43.0116 49.7474 42.4562 50.187 41.6949ZM37.1674 48.9737C37.61 49.7287 38.3334 50.2781 39.1796 50.5018C40.0258 50.7255 40.9261 50.6055 41.6841 50.1678C42.4421 49.7302 42.9962 49.0105 43.2256 48.1658C43.4549 47.3211 43.3408 46.42 42.9082 45.6591L42.8519 45.5762C42.5909 45.231 42.3167 44.896 42.0299 44.5719C41.355 43.8228 40.6598 43.0922 39.945 42.381C38.0573 40.501 36.1322 38.6589 34.171 36.8556L33.8031 36.5175L33.9125 37.0048C34.4929 39.6047 35.125 42.1927 35.8084 44.7675C36.1167 45.911 36.405 46.8954 36.6636 47.6677C36.8 48.0791 36.9526 48.4848 37.121 48.8842C37.1357 48.9144 37.1511 48.9443 37.1674 48.9737V48.9737ZM30.0941 35.0658C31.4127 35.0658 32.6773 34.5419 33.6097 33.6095C34.5421 32.6771 35.066 31.4125 35.066 30.0939C35.066 28.7753 34.5421 27.5107 33.6097 26.5783C32.6773 25.6459 31.4127 25.1221 30.0941 25.1221C28.7755 25.1221 27.5109 25.6459 26.5785 26.5783C25.6461 27.5107 25.1223 28.7753 25.1223 30.0939C25.1223 31.4125 25.6461 32.6771 26.5785 33.6095C27.5109 34.5419 28.7755 35.0658 30.0941 35.0658V35.0658Z" fill="#FDE905" stroke="#8E8B8B" stroke-width="0.4" mask="url(#path-1-inside-1_55_7)"/>
<mask id="path-2-inside-2_55_7" fill="white">
<path d="M39.3562 13.7964C40.3127 13.4307 41.3546 13.3498 42.3561 13.5633C43.3576 13.7769 44.2759 14.2759 45 15C45.7241 15.7241 46.2231 16.6424 46.4367 17.6439C46.6502 18.6454 46.5693 19.6873 46.2036 20.6438C47.2155 20.8046 48.1593 21.2551 48.9206 21.9409C49.682 22.6266 50.2284 23.5182 50.4937 24.5079C50.7591 25.4976 50.7321 26.543 50.4159 27.5176C50.0998 28.4923 49.5081 29.3545 48.7123 30C49.5081 30.6455 50.0998 31.5077 50.4159 32.4824C50.7321 33.457 50.7591 34.5024 50.4937 35.4921C50.2284 36.4818 49.682 37.3734 48.9206 38.0591C48.1593 38.7449 47.2155 39.1954 46.2036 39.3562C46.5693 40.3127 46.6502 41.3546 46.4367 42.3561C46.2231 43.3576 45.7241 44.2759 45 45C44.2759 45.7241 43.3576 46.2231 42.3561 46.4367C41.3546 46.6502 40.3127 46.5693 39.3562 46.2036C39.1954 47.2155 38.7449 48.1593 38.0591 48.9206C37.3734 49.682 36.4818 50.2284 35.4921 50.4937C34.5024 50.7591 33.457 50.7321 32.4824 50.4159C31.5077 50.0998 30.6455 49.5081 30 48.7123C29.3545 49.5081 28.4923 50.0998 27.5176 50.4159C26.543 50.7321 25.4976 50.7591 24.5079 50.4937C23.5182 50.2284 22.6266 49.682 21.9409 48.9206C21.2551 48.1593 20.8046 47.2155 20.6438 46.2036C19.6873 46.5693 18.6454 46.6502 17.6439 46.4367C16.6424 46.2231 15.7241 45.7241 15 45C14.2759 44.2759 13.7769 43.3576 13.5633 42.3561C13.3498 41.3546 13.4307 40.3127 13.7964 39.3562C12.7845 39.1954 11.8407 38.7449 11.0794 38.0591C10.318 37.3734 9.77164 36.4818 9.50627 35.4921C9.2409 34.5024 9.26792 33.457 9.58406 32.4824C9.9002 31.5077 10.4919 30.6455 11.2877 30C10.4919 29.3545 9.9002 28.4923 9.58406 27.5176C9.26792 26.543 9.2409 25.4976 9.50627 24.5079C9.77164 23.5182 10.318 22.6266 11.0794 21.9409C11.8407 21.2551 12.7845 20.8046 13.7964 20.6438C13.4307 19.6873 13.3498 18.6454 13.5633 17.6439C13.7769 16.6424 14.2759 15.7241 15 15C15.7241 14.2759 16.6424 13.7769 17.6439 13.5633C18.6454 13.3498 19.6873 13.4307 20.6438 13.7964C20.8046 12.7845 21.2551 11.8408 21.9409 11.0794C22.6266 10.318 23.5182 9.77164 24.5079 9.50627C25.4976 9.2409 26.543 9.26792 27.5176 9.58406C28.4923 9.9002 29.3545 10.4919 30 11.2877C30.6455 10.4919 31.5077 9.9002 32.4824 9.58406C33.457 9.26792 34.5024 9.2409 35.4921 9.50627C36.4818 9.77164 37.3734 10.318 38.0591 11.0794C38.7449 11.8408 39.1954 12.7845 39.3562 13.7964ZM43.1249 16.8751C42.8738 16.6248 42.575 16.4274 42.2463 16.2945C41.9175 16.1617 41.5655 16.0961 41.211 16.1017C40.8564 16.1073 40.5066 16.184 40.1823 16.3271C39.8579 16.4703 39.5655 16.677 39.3224 16.9351L39.1705 17.1245C39.0487 17.2914 38.8949 17.5089 38.7168 17.7807C38.3568 18.3245 37.9293 19.0257 37.4531 19.8432C36.5043 21.4745 35.4187 23.4826 34.3818 25.4494L34.1962 25.8038L34.5506 25.6182C36.5156 24.5832 38.5255 23.4957 40.1568 22.547C40.9743 22.0707 41.6755 21.6432 42.2193 21.2832C42.5083 21.0931 42.7897 20.8917 43.063 20.6795L43.1249 20.6251C43.6221 20.1278 43.9015 19.4534 43.9015 18.7501C43.9015 18.0469 43.6221 17.3724 43.1249 16.8751ZM16.8751 20.6251L16.9351 20.6776L17.1245 20.8295C17.3386 20.9873 17.5575 21.1386 17.7807 21.2832C18.3245 21.6432 19.0257 22.0707 19.8432 22.547C21.6914 23.6078 23.5605 24.6317 25.4494 25.6182L25.8038 25.8038L25.6182 25.4494C24.6317 23.5605 23.6078 21.6914 22.5469 19.8432C22.1446 19.1444 21.7232 18.4566 21.2832 17.7807C21.0931 17.4917 20.8917 17.2103 20.6795 16.937L20.6251 16.8751C20.1278 16.3779 19.4534 16.0985 18.7501 16.0985C18.0469 16.0985 17.3724 16.3779 16.8751 16.8751C16.3779 17.3724 16.0985 18.0469 16.0985 18.7501C16.0985 19.4534 16.3779 20.1278 16.8751 20.6251ZM20.6251 43.1249L20.6776 43.0649C20.8898 42.7916 21.0912 42.5101 21.2813 42.2211C21.7223 41.5449 22.1443 40.8565 22.5469 40.1568C23.6078 38.3086 24.6317 36.4395 25.6182 34.5506L25.8038 34.1962L25.4494 34.3818C23.4844 35.4168 21.4745 36.5043 19.8432 37.4531C19.0257 37.9293 18.3245 38.3568 17.7807 38.7168C17.4917 38.9069 17.2103 39.1083 16.937 39.3205L16.8751 39.3749C16.3779 39.8722 16.0985 40.5466 16.0985 41.2499C16.0985 41.9531 16.3779 42.6276 16.8751 43.1249C17.3724 43.6221 18.0469 43.9015 18.7501 43.9015C19.4534 43.9015 20.1278 43.6221 20.6251 43.1249ZM13.9464 28.4438L14.0252 28.4588C14.3681 28.5066 14.7127 28.541 15.0583 28.5619C15.7108 28.5994 16.5301 28.62 17.477 28.6219C19.6083 28.6174 21.7394 28.5705 23.8688 28.4813L24.2701 28.4663L23.9326 28.2525C22.1328 27.1097 20.3106 26.0026 18.467 24.9319C17.6476 24.4613 16.9295 24.0694 16.3445 23.7769C16.0346 23.6216 15.7187 23.4784 15.3976 23.3476L15.3208 23.3232C14.9836 23.2305 14.6314 23.2053 14.2845 23.2492C13.9376 23.2932 13.6027 23.4053 13.2993 23.5791C12.9959 23.753 12.7299 23.9851 12.5165 24.2622C12.3032 24.5393 12.1468 24.8558 12.0563 25.1936C11.9658 25.5314 11.943 25.8837 11.9892 26.2304C12.0354 26.577 12.1497 26.9111 12.3256 27.2133C12.5014 27.5156 12.7354 27.7801 13.0138 27.9916C13.2923 28.2031 13.6099 28.3574 13.9483 28.4456L13.9464 28.4438ZM12.0714 34.8037C12.2534 35.483 12.6978 36.0621 13.3069 36.4137C13.9159 36.7654 14.6396 36.8607 15.3189 36.6787L15.3958 36.6543C15.452 36.6356 15.5251 36.6037 15.6208 36.5643C15.8647 36.4583 16.1054 36.3452 16.3426 36.2249C16.9258 35.9343 17.6457 35.5406 18.4651 35.07C20.3088 33.9995 22.131 32.8924 23.9307 31.7494L24.2682 31.5356L23.8707 31.5206C21.7406 31.4309 19.609 31.3834 17.477 31.3781C16.671 31.376 15.8651 31.3953 15.0601 31.4362C14.7139 31.4578 14.3687 31.4929 14.0252 31.5412L13.9464 31.5562C13.2671 31.7383 12.688 32.1826 12.3364 32.7917C11.9847 33.4007 11.8894 34.1244 12.0714 34.8037ZM44.6811 36.6787C45.3586 36.8554 46.0786 36.757 46.6838 36.4049C47.289 36.0527 47.7304 35.4755 47.9116 34.7992C48.0929 34.1228 47.9992 33.4022 47.6511 32.7947C47.303 32.1871 46.7287 31.7419 46.0536 31.5562L45.9748 31.5412C45.632 31.4933 45.2873 31.4589 44.9417 31.4381C44.1362 31.3961 43.3296 31.3761 42.523 31.3781C40.3917 31.3827 38.2607 31.4296 36.1312 31.5187L35.7318 31.5356L36.0693 31.7494C37.8684 32.8917 39.69 33.9982 41.533 35.0681C42.3543 35.5406 43.0742 35.9343 43.6574 36.2249C43.9672 36.3804 44.2831 36.5236 44.6042 36.6543C44.6296 36.6632 44.6553 36.6713 44.6811 36.6787ZM47.9286 25.1963C47.7466 24.517 47.3022 23.9379 46.6931 23.5863C46.0841 23.2346 45.3604 23.1393 44.6811 23.3213L44.6042 23.3457C44.548 23.3644 44.4749 23.3963 44.3792 23.4357C44.1353 23.5417 43.8946 23.6549 43.6574 23.7751C43.0742 24.0657 42.3543 24.4594 41.533 24.9319C39.69 26.0018 37.8684 27.1083 36.0693 28.2506L35.7318 28.4644L36.1293 28.4794C38.2594 28.5691 40.391 28.6166 42.523 28.6219C43.4699 28.62 44.2892 28.5994 44.9399 28.5638C45.2861 28.5423 45.6314 28.5073 45.9748 28.4588L46.0536 28.4438C46.7329 28.2618 47.312 27.8174 47.6636 27.2083C48.0153 26.5993 48.1106 25.8756 47.9286 25.1963ZM39.3749 43.1249C39.8722 43.6221 40.5466 43.9015 41.2499 43.9015C41.9531 43.9015 42.6276 43.6221 43.1249 43.1249C43.6221 42.6276 43.9015 41.9531 43.9015 41.2499C43.9015 40.5466 43.6221 39.8722 43.1249 39.3749L43.0649 39.3224C42.7916 39.1102 42.5102 38.9088 42.2211 38.7187C41.6755 38.3568 40.9743 37.9293 40.1568 37.4531C38.5255 36.5043 36.5174 35.4187 34.5506 34.3818L34.1962 34.1962L34.3818 34.5506C35.4168 36.5156 36.5043 38.5255 37.4531 40.1568C37.9293 40.9743 38.3568 41.6755 38.7168 42.2193C38.9069 42.5083 39.1083 42.7897 39.3205 43.063L39.3749 43.1249ZM25.1963 12.0714C24.8537 12.1636 24.5331 12.3235 24.2534 12.5418C23.9737 12.7601 23.7407 13.0323 23.5681 13.3423C23.3956 13.6523 23.287 13.9938 23.2488 14.3465C23.2105 14.6992 23.2435 15.056 23.3457 15.3958L23.4376 15.6189C23.5163 15.8101 23.6288 16.0501 23.7751 16.3426C24.0657 16.9258 24.4594 17.6458 24.9301 18.4651C26.0007 20.3087 27.1078 22.1309 28.2506 23.9307L28.4644 24.2682L28.4794 23.8669C28.5693 21.7381 28.6168 19.6077 28.6219 17.477C28.6245 16.671 28.6051 15.8651 28.5638 15.0602C28.5423 14.7139 28.5073 14.3687 28.4588 14.0252L28.4438 13.9464C28.2617 13.2671 27.8174 12.688 27.2083 12.3364C26.5993 11.9847 25.8756 11.8894 25.1963 12.0714ZM31.5562 13.9464L31.5412 14.0252C31.4934 14.3681 31.459 14.7127 31.4381 15.0583C31.4006 15.7108 31.38 16.5301 31.3781 17.477C31.3826 19.6083 31.4295 21.7394 31.5187 23.8688L31.5356 24.2682L31.7494 23.9307C32.8917 22.1316 33.9982 20.31 35.0681 18.467C35.5406 17.6458 35.9343 16.9258 36.2249 16.3426C36.3804 16.0327 36.5236 15.7169 36.6543 15.3958L36.6787 15.3189C36.7714 14.9817 36.7966 14.6295 36.7526 14.2826C36.7087 13.9357 36.5966 13.6009 36.4228 13.2974C36.2489 12.994 36.0168 12.728 35.7397 12.5147C35.4626 12.3013 35.1461 12.1449 34.8083 12.0544C34.4705 11.9639 34.1181 11.9411 33.7715 11.9873C33.4249 12.0335 33.0908 12.1479 32.7886 12.3237C32.4863 12.4996 32.2218 12.7335 32.0103 13.012C31.7988 13.2905 31.6445 13.608 31.5562 13.9464ZM34.8037 47.9286C35.483 47.7466 36.0621 47.3022 36.4137 46.6931C36.7654 46.0841 36.8607 45.3604 36.6787 44.6811L36.6543 44.6042C36.5236 44.2831 36.3804 43.9673 36.2249 43.6574C35.9343 43.0742 35.5406 42.3543 35.0681 41.533C33.9982 39.69 32.8917 37.8684 31.7494 36.0693L31.5356 35.7318L31.5187 36.1312C31.4296 38.2607 31.3827 40.3917 31.3781 42.523C31.38 43.4699 31.4006 44.2892 31.4362 44.9398C31.4575 45.2861 31.4926 45.6314 31.5412 45.9748L31.5562 46.0536C31.7383 46.7329 32.1826 47.312 32.7917 47.6636C33.4007 48.0153 34.1244 48.1106 34.8037 47.9286ZM23.3213 44.6811C23.1446 45.3586 23.243 46.0786 23.5951 46.6838C23.9473 47.289 24.5245 47.7304 25.2008 47.9116C25.8772 48.0929 26.5978 47.9992 27.2053 47.6511C27.8129 47.303 28.2581 46.7287 28.4438 46.0536L28.4588 45.9748C28.5064 45.6319 28.5408 45.2873 28.5619 44.9417C28.6039 44.1362 28.6239 43.3296 28.6219 42.523C28.6175 40.3917 28.5706 38.2606 28.4813 36.1312L28.4644 35.7318L28.2506 36.0693C27.1083 37.8684 26.0018 39.69 24.9319 41.533C24.4594 42.3543 24.0657 43.0742 23.7751 43.6574C23.6196 43.9672 23.4763 44.2831 23.3457 44.6042C23.3369 44.6296 23.3288 44.6553 23.3213 44.6811ZM27.1875 32.8125C27.9334 33.5584 28.9451 33.9774 30 33.9774C31.0549 33.9774 32.0666 33.5584 32.8125 32.8125C33.5584 32.0666 33.9774 31.0549 33.9774 30C33.9774 28.9451 33.5584 27.9334 32.8125 27.1875C32.0666 26.4416 31.0549 26.0226 30 26.0226C28.9451 26.0226 27.9334 26.4416 27.1875 27.1875C26.4416 27.9334 26.0226 28.9451 26.0226 30C26.0226 31.0549 26.4416 32.0666 27.1875 32.8125Z"/>
</mask>
<path d="M39.3562 13.7964C40.3127 13.4307 41.3546 13.3498 42.3561 13.5633C43.3576 13.7769 44.2759 14.2759 45 15C45.7241 15.7241 46.2231 16.6424 46.4367 17.6439C46.6502 18.6454 46.5693 19.6873 46.2036 20.6438C47.2155 20.8046 48.1593 21.2551 48.9206 21.9409C49.682 22.6266 50.2284 23.5182 50.4937 24.5079C50.7591 25.4976 50.7321 26.543 50.4159 27.5176C50.0998 28.4923 49.5081 29.3545 48.7123 30C49.5081 30.6455 50.0998 31.5077 50.4159 32.4824C50.7321 33.457 50.7591 34.5024 50.4937 35.4921C50.2284 36.4818 49.682 37.3734 48.9206 38.0591C48.1593 38.7449 47.2155 39.1954 46.2036 39.3562C46.5693 40.3127 46.6502 41.3546 46.4367 42.3561C46.2231 43.3576 45.7241 44.2759 45 45C44.2759 45.7241 43.3576 46.2231 42.3561 46.4367C41.3546 46.6502 40.3127 46.5693 39.3562 46.2036C39.1954 47.2155 38.7449 48.1593 38.0591 48.9206C37.3734 49.682 36.4818 50.2284 35.4921 50.4937C34.5024 50.7591 33.457 50.7321 32.4824 50.4159C31.5077 50.0998 30.6455 49.5081 30 48.7123C29.3545 49.5081 28.4923 50.0998 27.5176 50.4159C26.543 50.7321 25.4976 50.7591 24.5079 50.4937C23.5182 50.2284 22.6266 49.682 21.9409 48.9206C21.2551 48.1593 20.8046 47.2155 20.6438 46.2036C19.6873 46.5693 18.6454 46.6502 17.6439 46.4367C16.6424 46.2231 15.7241 45.7241 15 45C14.2759 44.2759 13.7769 43.3576 13.5633 42.3561C13.3498 41.3546 13.4307 40.3127 13.7964 39.3562C12.7845 39.1954 11.8407 38.7449 11.0794 38.0591C10.318 37.3734 9.77164 36.4818 9.50627 35.4921C9.2409 34.5024 9.26792 33.457 9.58406 32.4824C9.9002 31.5077 10.4919 30.6455 11.2877 30C10.4919 29.3545 9.9002 28.4923 9.58406 27.5176C9.26792 26.543 9.2409 25.4976 9.50627 24.5079C9.77164 23.5182 10.318 22.6266 11.0794 21.9409C11.8407 21.2551 12.7845 20.8046 13.7964 20.6438C13.4307 19.6873 13.3498 18.6454 13.5633 17.6439C13.7769 16.6424 14.2759 15.7241 15 15C15.7241 14.2759 16.6424 13.7769 17.6439 13.5633C18.6454 13.3498 19.6873 13.4307 20.6438 13.7964C20.8046 12.7845 21.2551 11.8408 21.9409 11.0794C22.6266 10.318 23.5182 9.77164 24.5079 9.50627C25.4976 9.2409 26.543 9.26792 27.5176 9.58406C28.4923 9.9002 29.3545 10.4919 30 11.2877C30.6455 10.4919 31.5077 9.9002 32.4824 9.58406C33.457 9.26792 34.5024 9.2409 35.4921 9.50627C36.4818 9.77164 37.3734 10.318 38.0591 11.0794C38.7449 11.8408 39.1954 12.7845 39.3562 13.7964ZM43.1249 16.8751C42.8738 16.6248 42.575 16.4274 42.2463 16.2945C41.9175 16.1617 41.5655 16.0961 41.211 16.1017C40.8564 16.1073 40.5066 16.184 40.1823 16.3271C39.8579 16.4703 39.5655 16.677 39.3224 16.9351L39.1705 17.1245C39.0487 17.2914 38.8949 17.5089 38.7168 17.7807C38.3568 18.3245 37.9293 19.0257 37.4531 19.8432C36.5043 21.4745 35.4187 23.4826 34.3818 25.4494L34.1962 25.8038L34.5506 25.6182C36.5156 24.5832 38.5255 23.4957 40.1568 22.547C40.9743 22.0707 41.6755 21.6432 42.2193 21.2832C42.5083 21.0931 42.7897 20.8917 43.063 20.6795L43.1249 20.6251C43.6221 20.1278 43.9015 19.4534 43.9015 18.7501C43.9015 18.0469 43.6221 17.3724 43.1249 16.8751ZM16.8751 20.6251L16.9351 20.6776L17.1245 20.8295C17.3386 20.9873 17.5575 21.1386 17.7807 21.2832C18.3245 21.6432 19.0257 22.0707 19.8432 22.547C21.6914 23.6078 23.5605 24.6317 25.4494 25.6182L25.8038 25.8038L25.6182 25.4494C24.6317 23.5605 23.6078 21.6914 22.5469 19.8432C22.1446 19.1444 21.7232 18.4566 21.2832 17.7807C21.0931 17.4917 20.8917 17.2103 20.6795 16.937L20.6251 16.8751C20.1278 16.3779 19.4534 16.0985 18.7501 16.0985C18.0469 16.0985 17.3724 16.3779 16.8751 16.8751C16.3779 17.3724 16.0985 18.0469 16.0985 18.7501C16.0985 19.4534 16.3779 20.1278 16.8751 20.6251ZM20.6251 43.1249L20.6776 43.0649C20.8898 42.7916 21.0912 42.5101 21.2813 42.2211C21.7223 41.5449 22.1443 40.8565 22.5469 40.1568C23.6078 38.3086 24.6317 36.4395 25.6182 34.5506L25.8038 34.1962L25.4494 34.3818C23.4844 35.4168 21.4745 36.5043 19.8432 37.4531C19.0257 37.9293 18.3245 38.3568 17.7807 38.7168C17.4917 38.9069 17.2103 39.1083 16.937 39.3205L16.8751 39.3749C16.3779 39.8722 16.0985 40.5466 16.0985 41.2499C16.0985 41.9531 16.3779 42.6276 16.8751 43.1249C17.3724 43.6221 18.0469 43.9015 18.7501 43.9015C19.4534 43.9015 20.1278 43.6221 20.6251 43.1249ZM13.9464 28.4438L14.0252 28.4588C14.3681 28.5066 14.7127 28.541 15.0583 28.5619C15.7108 28.5994 16.5301 28.62 17.477 28.6219C19.6083 28.6174 21.7394 28.5705 23.8688 28.4813L24.2701 28.4663L23.9326 28.2525C22.1328 27.1097 20.3106 26.0026 18.467 24.9319C17.6476 24.4613 16.9295 24.0694 16.3445 23.7769C16.0346 23.6216 15.7187 23.4784 15.3976 23.3476L15.3208 23.3232C14.9836 23.2305 14.6314 23.2053 14.2845 23.2492C13.9376 23.2932 13.6027 23.4053 13.2993 23.5791C12.9959 23.753 12.7299 23.9851 12.5165 24.2622C12.3032 24.5393 12.1468 24.8558 12.0563 25.1936C11.9658 25.5314 11.943 25.8837 11.9892 26.2304C12.0354 26.577 12.1497 26.9111 12.3256 27.2133C12.5014 27.5156 12.7354 27.7801 13.0138 27.9916C13.2923 28.2031 13.6099 28.3574 13.9483 28.4456L13.9464 28.4438ZM12.0714 34.8037C12.2534 35.483 12.6978 36.0621 13.3069 36.4137C13.9159 36.7654 14.6396 36.8607 15.3189 36.6787L15.3958 36.6543C15.452 36.6356 15.5251 36.6037 15.6208 36.5643C15.8647 36.4583 16.1054 36.3452 16.3426 36.2249C16.9258 35.9343 17.6457 35.5406 18.4651 35.07C20.3088 33.9995 22.131 32.8924 23.9307 31.7494L24.2682 31.5356L23.8707 31.5206C21.7406 31.4309 19.609 31.3834 17.477 31.3781C16.671 31.376 15.8651 31.3953 15.0601 31.4362C14.7139 31.4578 14.3687 31.4929 14.0252 31.5412L13.9464 31.5562C13.2671 31.7383 12.688 32.1826 12.3364 32.7917C11.9847 33.4007 11.8894 34.1244 12.0714 34.8037ZM44.6811 36.6787C45.3586 36.8554 46.0786 36.757 46.6838 36.4049C47.289 36.0527 47.7304 35.4755 47.9116 34.7992C48.0929 34.1228 47.9992 33.4022 47.6511 32.7947C47.303 32.1871 46.7287 31.7419 46.0536 31.5562L45.9748 31.5412C45.632 31.4933 45.2873 31.4589 44.9417 31.4381C44.1362 31.3961 43.3296 31.3761 42.523 31.3781C40.3917 31.3827 38.2607 31.4296 36.1312 31.5187L35.7318 31.5356L36.0693 31.7494C37.8684 32.8917 39.69 33.9982 41.533 35.0681C42.3543 35.5406 43.0742 35.9343 43.6574 36.2249C43.9672 36.3804 44.2831 36.5236 44.6042 36.6543C44.6296 36.6632 44.6553 36.6713 44.6811 36.6787ZM47.9286 25.1963C47.7466 24.517 47.3022 23.9379 46.6931 23.5863C46.0841 23.2346 45.3604 23.1393 44.6811 23.3213L44.6042 23.3457C44.548 23.3644 44.4749 23.3963 44.3792 23.4357C44.1353 23.5417 43.8946 23.6549 43.6574 23.7751C43.0742 24.0657 42.3543 24.4594 41.533 24.9319C39.69 26.0018 37.8684 27.1083 36.0693 28.2506L35.7318 28.4644L36.1293 28.4794C38.2594 28.5691 40.391 28.6166 42.523 28.6219C43.4699 28.62 44.2892 28.5994 44.9399 28.5638C45.2861 28.5423 45.6314 28.5073 45.9748 28.4588L46.0536 28.4438C46.7329 28.2618 47.312 27.8174 47.6636 27.2083C48.0153 26.5993 48.1106 25.8756 47.9286 25.1963ZM39.3749 43.1249C39.8722 43.6221 40.5466 43.9015 41.2499 43.9015C41.9531 43.9015 42.6276 43.6221 43.1249 43.1249C43.6221 42.6276 43.9015 41.9531 43.9015 41.2499C43.9015 40.5466 43.6221 39.8722 43.1249 39.3749L43.0649 39.3224C42.7916 39.1102 42.5102 38.9088 42.2211 38.7187C41.6755 38.3568 40.9743 37.9293 40.1568 37.4531C38.5255 36.5043 36.5174 35.4187 34.5506 34.3818L34.1962 34.1962L34.3818 34.5506C35.4168 36.5156 36.5043 38.5255 37.4531 40.1568C37.9293 40.9743 38.3568 41.6755 38.7168 42.2193C38.9069 42.5083 39.1083 42.7897 39.3205 43.063L39.3749 43.1249ZM25.1963 12.0714C24.8537 12.1636 24.5331 12.3235 24.2534 12.5418C23.9737 12.7601 23.7407 13.0323 23.5681 13.3423C23.3956 13.6523 23.287 13.9938 23.2488 14.3465C23.2105 14.6992 23.2435 15.056 23.3457 15.3958L23.4376 15.6189C23.5163 15.8101 23.6288 16.0501 23.7751 16.3426C24.0657 16.9258 24.4594 17.6458 24.9301 18.4651C26.0007 20.3087 27.1078 22.1309 28.2506 23.9307L28.4644 24.2682L28.4794 23.8669C28.5693 21.7381 28.6168 19.6077 28.6219 17.477C28.6245 16.671 28.6051 15.8651 28.5638 15.0602C28.5423 14.7139 28.5073 14.3687 28.4588 14.0252L28.4438 13.9464C28.2617 13.2671 27.8174 12.688 27.2083 12.3364C26.5993 11.9847 25.8756 11.8894 25.1963 12.0714ZM31.5562 13.9464L31.5412 14.0252C31.4934 14.3681 31.459 14.7127 31.4381 15.0583C31.4006 15.7108 31.38 16.5301 31.3781 17.477C31.3826 19.6083 31.4295 21.7394 31.5187 23.8688L31.5356 24.2682L31.7494 23.9307C32.8917 22.1316 33.9982 20.31 35.0681 18.467C35.5406 17.6458 35.9343 16.9258 36.2249 16.3426C36.3804 16.0327 36.5236 15.7169 36.6543 15.3958L36.6787 15.3189C36.7714 14.9817 36.7966 14.6295 36.7526 14.2826C36.7087 13.9357 36.5966 13.6009 36.4228 13.2974C36.2489 12.994 36.0168 12.728 35.7397 12.5147C35.4626 12.3013 35.1461 12.1449 34.8083 12.0544C34.4705 11.9639 34.1181 11.9411 33.7715 11.9873C33.4249 12.0335 33.0908 12.1479 32.7886 12.3237C32.4863 12.4996 32.2218 12.7335 32.0103 13.012C31.7988 13.2905 31.6445 13.608 31.5562 13.9464ZM34.8037 47.9286C35.483 47.7466 36.0621 47.3022 36.4137 46.6931C36.7654 46.0841 36.8607 45.3604 36.6787 44.6811L36.6543 44.6042C36.5236 44.2831 36.3804 43.9673 36.2249 43.6574C35.9343 43.0742 35.5406 42.3543 35.0681 41.533C33.9982 39.69 32.8917 37.8684 31.7494 36.0693L31.5356 35.7318L31.5187 36.1312C31.4296 38.2607 31.3827 40.3917 31.3781 42.523C31.38 43.4699 31.4006 44.2892 31.4362 44.9398C31.4575 45.2861 31.4926 45.6314 31.5412 45.9748L31.5562 46.0536C31.7383 46.7329 32.1826 47.312 32.7917 47.6636C33.4007 48.0153 34.1244 48.1106 34.8037 47.9286ZM23.3213 44.6811C23.1446 45.3586 23.243 46.0786 23.5951 46.6838C23.9473 47.289 24.5245 47.7304 25.2008 47.9116C25.8772 48.0929 26.5978 47.9992 27.2053 47.6511C27.8129 47.303 28.2581 46.7287 28.4438 46.0536L28.4588 45.9748C28.5064 45.6319 28.5408 45.2873 28.5619 44.9417C28.6039 44.1362 28.6239 43.3296 28.6219 42.523C28.6175 40.3917 28.5706 38.2606 28.4813 36.1312L28.4644 35.7318L28.2506 36.0693C27.1083 37.8684 26.0018 39.69 24.9319 41.533C24.4594 42.3543 24.0657 43.0742 23.7751 43.6574C23.6196 43.9672 23.4763 44.2831 23.3457 44.6042C23.3369 44.6296 23.3288 44.6553 23.3213 44.6811ZM27.1875 32.8125C27.9334 33.5584 28.9451 33.9774 30 33.9774C31.0549 33.9774 32.0666 33.5584 32.8125 32.8125C33.5584 32.0666 33.9774 31.0549 33.9774 30C33.9774 28.9451 33.5584 27.9334 32.8125 27.1875C32.0666 26.4416 31.0549 26.0226 30 26.0226C28.9451 26.0226 27.9334 26.4416 27.1875 27.1875C26.4416 27.9334 26.0226 28.9451 26.0226 30C26.0226 31.0549 26.4416 32.0666 27.1875 32.8125Z" fill="#FDE905" stroke="#8E8B8B" stroke-width="0.4" mask="url(#path-2-inside-2_55_7)"/>
<path d="M20.75 56.25L24.75 54.75L33.25 42.2L22.25 23.5L19.75 22.75V22H27C28.6667 22 29.9833 22.35 30.95 23.05C31.95 23.75 32.8833 24.8167 33.75 26.25L38.55 34.45L45.5 24.25L41.75 22.75V22H51.25V22.75L47.25 24.25L39.4 35.8L51 55.5L53.5 56.25V57H46.25C44.6167 57 43.3 56.65 42.3 55.95C41.3 55.25 40.3667 54.1833 39.5 52.75L34.1 43.6L26.5 54.75L30.25 56.25V57H20.75V56.25ZM54.212 62.92L56.132 62.44V41.96L54.212 41.48V41H57.092C58.3506 41 59.3426 41.4053 60.068 42.216C60.3453 42.536 60.58 42.9307 60.772 43.4C61.0493 42.8453 61.4013 42.3653 61.828 41.96C62.788 41 63.9826 40.52 65.412 40.52C66.6706 40.52 67.7906 40.8507 68.772 41.512C69.7533 42.152 70.532 43.112 71.108 44.392C71.684 45.6507 71.972 47.1867 71.972 49C71.972 51.7307 71.332 53.832 70.052 55.304C68.7933 56.7547 67.0866 57.48 64.932 57.48C63.908 57.48 63.012 57.2667 62.244 56.84C61.924 56.6907 61.5933 56.4773 61.252 56.2V62.44L63.172 62.92V63.4H54.212V62.92ZM63.652 56.52C64.5693 56.52 65.2733 55.9867 65.764 54.92C66.276 53.8533 66.532 51.88 66.532 49C66.532 46.248 66.2973 44.3387 65.828 43.272C65.38 42.184 64.8146 41.64 64.132 41.64C63.3213 41.64 62.596 42.0667 61.956 42.92C61.6786 43.2827 61.444 43.7093 61.252 44.2V55.24C61.5506 55.5387 61.7853 55.752 61.956 55.88C62.532 56.3067 63.0973 56.52 63.652 56.52ZM74.532 57V56.52L76.452 56.04V41.96L74.532 41.48V41H83.492V41.48L81.572 41.96V52.52L86.692 43.72V41.96L84.772 41.48V41H93.732V41.48L91.812 41.96V56.04L93.732 56.52V57H84.772V56.52L86.692 56.04V45.48L81.572 54.28V56.04L83.492 56.52V57H74.532ZM102.682 57.48C101.295 57.48 100.09 57.256 99.066 56.808C98.0633 56.3387 97.2953 55.7307 96.762 54.984C96.2286 54.216 95.962 53.3947 95.962 52.52H96.762C96.762 53.224 96.986 53.896 97.434 54.536C97.882 55.176 98.5006 55.6987 99.29 56.104C100.101 56.488 101.018 56.68 102.042 56.68C104.495 56.68 105.722 55.4 105.722 52.84C105.722 51.6027 105.445 50.6533 104.89 49.992C104.335 49.3307 103.599 49 102.682 49H100.602V48.2H102.042C102.959 48.2 103.695 47.8907 104.25 47.272C104.805 46.6533 105.082 45.7893 105.082 44.68C105.082 43.5707 104.805 42.7067 104.25 42.088C103.695 41.4693 102.959 41.16 102.042 41.16C101.509 41.16 101.05 41.2133 100.666 41.32L100.122 41.48V46.28L99.706 46.376C99.3646 46.4187 99.0766 46.44 98.842 46.44C98.1166 46.44 97.53 46.2267 97.082 45.8C96.6553 45.352 96.442 44.7653 96.442 44.04C96.442 43.0587 96.954 42.2267 97.978 41.544C99.0233 40.8613 100.591 40.52 102.682 40.52C104.453 40.52 105.914 40.712 107.066 41.096C108.218 41.48 109.05 41.992 109.562 42.632C110.095 43.2507 110.362 43.9333 110.362 44.68C110.362 45.576 110.085 46.28 109.53 46.792C108.997 47.304 108.282 47.72 107.386 48.04C106.511 48.3387 105.53 48.4987 104.442 48.52V48.68C105.573 48.7013 106.661 48.872 107.706 49.192C108.666 49.4907 109.455 49.9387 110.074 50.536C110.693 51.112 111.002 51.88 111.002 52.84C111.002 54.248 110.351 55.3787 109.05 56.232C107.749 57.064 105.626 57.48 102.682 57.48ZM119.491 57.48C117.592 57.48 116.131 57.0747 115.107 56.264C114.083 55.4533 113.571 54.4187 113.571 53.16C113.571 52.328 113.752 51.5067 114.115 50.696C114.264 50.312 114.456 49.96 114.691 49.64C115.565 49.4267 116.515 49.2347 117.539 49.064C119.843 48.68 121.88 48.4453 123.651 48.36V47.4C123.651 45.032 123.363 43.4 122.787 42.504C122.211 41.608 121.325 41.16 120.131 41.16C119.683 41.16 119.299 41.2133 118.979 41.32L118.531 41.48V46.28L118.115 46.376C117.773 46.4187 117.485 46.44 117.251 46.44C116.525 46.44 115.939 46.2267 115.491 45.8C115.064 45.352 114.851 44.7653 114.851 44.04C114.851 43.0587 115.341 42.2267 116.323 41.544C117.325 40.8613 118.808 40.52 120.771 40.52C122.435 40.52 123.864 40.8187 125.059 41.416C126.275 41.992 127.192 42.8027 127.811 43.848C128.451 44.872 128.771 46.056 128.771 47.4V56.04L130.691 56.52V57H127.811C126.531 57 125.539 56.6053 124.835 55.816C124.536 55.496 124.301 55.0907 124.131 54.6C123.832 55.1333 123.48 55.6133 123.075 56.04C122.115 57 120.92 57.48 119.491 57.48ZM120.771 56.36C121.56 56.36 122.275 55.9333 122.915 55.08C123.149 54.76 123.395 54.3333 123.651 53.8V49.16C122.669 49.16 121.731 49.2133 120.835 49.32C120.173 49.4053 119.725 49.4587 119.491 49.48C119.384 49.7147 119.277 50.0347 119.171 50.44C118.957 51.2507 118.851 52.0507 118.851 52.84C118.851 54.0347 119.032 54.92 119.395 55.496C119.757 56.072 120.216 56.36 120.771 56.36ZM132.626 57V56.52L134.546 56.04V41.96L132.626 41.48V41H141.586V41.48L139.666 41.96V48.52H144.466V41.96L142.546 41.48V41H151.506V41.48L149.586 41.96V56.04L151.506 56.52V57H142.546V56.52L144.466 56.04V49.32H139.666V56.04L141.586 56.52V57H132.626ZM157.103 56.52L159.023 56.04V41.8H156.623C156.623 42.9733 156.271 44.1573 155.567 45.352C155.29 45.8 154.949 46.216 154.543 46.6H153.583V41H169.583V46.6H168.623C168.218 46.2373 167.866 45.8213 167.567 45.352C166.885 44.2 166.543 43.016 166.543 41.8H164.143V56.04L166.063 56.52V57H157.103V56.52ZM180.297 57.48C177.566 57.48 175.444 56.7333 173.929 55.24C172.414 53.7253 171.657 51.6453 171.657 49C171.657 47.272 171.988 45.768 172.649 44.488C173.31 43.208 174.228 42.2267 175.401 41.544C176.596 40.8613 177.961 40.52 179.497 40.52C181.033 40.52 182.377 40.808 183.529 41.384C184.702 41.96 185.598 42.7387 186.217 43.72C186.857 44.68 187.177 45.7467 187.177 46.92C187.177 47.4533 187.124 47.912 187.017 48.296L186.857 48.84C185.94 49.032 184.948 49.192 183.881 49.32C181.641 49.64 179.38 49.8 177.097 49.8C177.097 52.2747 177.438 54.0453 178.121 55.112C178.804 56.1573 179.742 56.68 180.937 56.68C181.769 56.68 182.537 56.488 183.241 56.104C183.966 55.6987 184.532 55.176 184.937 54.536C185.364 53.8747 185.577 53.2027 185.577 52.52H186.377C186.377 53.3733 186.121 54.184 185.609 54.952C185.097 55.72 184.382 56.3387 183.465 56.808C182.548 57.256 181.492 57.48 180.297 57.48ZM177.097 49C178.462 49 179.572 48.9467 180.425 48.84C180.788 48.8187 181.172 48.7653 181.577 48.68C181.598 48.5733 181.652 48.3387 181.737 47.976C181.844 47.4427 181.897 46.8773 181.897 46.28C181.897 44.5093 181.662 43.2187 181.193 42.408C180.724 41.576 180.158 41.16 179.497 41.16C177.897 41.16 177.097 43.7733 177.097 49ZM192.443 44.84V55.56L195.003 56.52V57H188.923V56.52L191.483 55.56V41.96L189.243 41.48V41H193.563C194.609 41 195.451 41.224 196.091 41.672C196.731 42.12 197.275 42.7493 197.723 43.56L202.075 51.272L205.563 43.56C205.969 42.7067 206.481 42.0667 207.099 41.64C207.718 41.2133 208.593 41 209.723 41H212.923V41.48L211.003 41.96V56.04L212.923 56.52V57H203.963V56.52L205.883 56.04V44.84L200.251 57.32H199.483L192.443 44.84ZM215.469 56.52L217.389 56.04V41.96L215.469 41.48V41H224.429V41.48L222.509 41.96V48.2H223.629C224.248 48.2 224.781 48.008 225.229 47.624C225.677 47.2187 225.997 46.7173 226.189 46.12L226.989 43.24C227.501 41.5333 228.461 40.68 229.869 40.68C230.829 40.68 231.576 40.936 232.109 41.448C232.643 41.96 232.909 42.664 232.909 43.56C232.909 44.3707 232.685 45 232.237 45.448C231.811 45.896 231.235 46.12 230.509 46.12C230.211 46.12 229.912 46.0987 229.613 46.056L229.229 45.96V41.64C228.589 41.8107 228.163 42.344 227.949 43.24L227.149 46.12C226.936 46.8667 226.584 47.464 226.093 47.912C225.923 48.0827 225.688 48.232 225.389 48.36H226.349C227.608 48.36 228.589 48.616 229.293 49.128C230.019 49.6187 230.531 50.2693 230.829 51.08L232.429 56.04L234.029 56.52V57H230.669C229.539 57 228.621 56.744 227.917 56.232C227.235 55.72 226.765 55.0693 226.509 54.28L224.749 49H222.509V56.04L224.429 56.52V57H215.469V56.52ZM241.709 57.48C239.811 57.48 238.349 57.0747 237.325 56.264C236.301 55.4533 235.789 54.4187 235.789 53.16C235.789 52.328 235.971 51.5067 236.333 50.696C236.483 50.312 236.675 49.96 236.909 49.64C237.784 49.4267 238.733 49.2347 239.757 49.064C242.061 48.68 244.099 48.4453 245.869 48.36V47.4C245.869 45.032 245.581 43.4 245.005 42.504C244.429 41.608 243.544 41.16 242.349 41.16C241.901 41.16 241.517 41.2133 241.197 41.32L240.749 41.48V46.28L240.333 46.376C239.992 46.4187 239.704 46.44 239.469 46.44C238.744 46.44 238.157 46.2267 237.709 45.8C237.283 45.352 237.069 44.7653 237.069 44.04C237.069 43.0587 237.56 42.2267 238.541 41.544C239.544 40.8613 241.027 40.52 242.989 40.52C244.653 40.52 246.083 40.8187 247.277 41.416C248.493 41.992 249.411 42.8027 250.029 43.848C250.669 44.872 250.989 46.056 250.989 47.4V56.04L252.909 56.52V57H250.029C248.749 57 247.757 56.6053 247.053 55.816C246.755 55.496 246.52 55.0907 246.349 54.6C246.051 55.1333 245.699 55.6133 245.293 56.04C244.333 57 243.139 57.48 241.709 57.48ZM242.989 56.36C243.779 56.36 244.493 55.9333 245.133 55.08C245.368 54.76 245.613 54.3333 245.869 53.8V49.16C244.888 49.16 243.949 49.2133 243.053 49.32C242.392 49.4053 241.944 49.4587 241.709 49.48C241.603 49.7147 241.496 50.0347 241.389 50.44C241.176 51.2507 241.069 52.0507 241.069 52.84C241.069 54.0347 241.251 54.92 241.613 55.496C241.976 56.072 242.435 56.36 242.989 56.36Z" fill="#0E5A02"/>
</svg>
