<svg width="80" height="80" viewBox="0 0 80 80" fill="none" xmlns="http://www.w3.org/2000/svg">
<mask id="path-1-inside-1_38_2" fill="white">
<path d="M32.0556 10.0025C32.7519 8.44422 33.8844 7.12088 35.3165 6.19227C36.7485 5.26367 38.4187 4.76953 40.1255 4.76953C41.8322 4.76953 43.5025 5.26367 44.9345 6.19227C46.3665 7.12088 47.4991 8.44422 48.1953 10.0025C49.5774 8.99935 51.2205 8.41809 52.926 8.32898C54.6314 8.23987 56.3262 8.64673 57.8053 9.50035C59.2844 10.354 60.4845 11.6178 61.2606 13.139C62.0367 14.6603 62.3555 16.3738 62.1784 18.0723C63.8769 17.8952 65.5904 18.214 67.1117 18.9901C68.6329 19.7662 69.8967 20.9663 70.7504 22.4454C71.604 23.9246 72.0108 25.6193 71.9217 27.3247C71.8326 29.0302 71.2514 30.6733 70.2482 32.0554C71.8065 32.7517 73.1298 33.8842 74.0584 35.3162C74.987 36.7482 75.4812 38.4185 75.4812 40.1252C75.4812 41.832 74.987 43.5022 74.0584 44.9342C73.1298 46.3663 71.8065 47.4988 70.2482 48.1951C71.2514 49.5772 71.8326 51.2203 71.9217 52.9257C72.0108 54.6312 71.604 56.3259 70.7504 57.805C69.8967 59.2841 68.6329 60.4843 67.1117 61.2604C65.5904 62.0364 63.8769 62.3552 62.1784 62.1781C62.3555 63.8767 62.0367 65.5902 61.2606 67.1114C60.4845 68.6326 59.2844 69.8965 57.8053 70.7501C56.3262 71.6037 54.6314 72.0106 52.926 71.9215C51.2205 71.8324 49.5774 71.2511 48.1953 70.248C47.4991 71.8062 46.3665 73.1296 44.9345 74.0582C43.5025 74.9868 41.8322 75.4809 40.1255 75.4809C38.4187 75.4809 36.7485 74.9868 35.3165 74.0582C33.8844 73.1296 32.7519 71.8062 32.0556 70.248C30.6735 71.2511 29.0304 71.8324 27.325 71.9215C25.6195 72.0106 23.9248 71.6037 22.4457 70.7501C20.9666 69.8965 19.7664 68.6326 18.9903 67.1114C18.2143 65.5902 17.8955 63.8767 18.0726 62.1781C16.374 62.3552 14.6605 62.0364 13.1393 61.2604C11.6181 60.4843 10.3542 59.2841 9.50059 57.805C8.64697 56.3259 8.24012 54.6312 8.32923 52.9257C8.41834 51.2203 8.9996 49.5772 10.0027 48.1951C8.44446 47.4988 7.12112 46.3663 6.19252 44.9342C5.26392 43.5022 4.76978 41.832 4.76978 40.1252C4.76978 38.4185 5.26392 36.7482 6.19252 35.3162C7.12112 33.8842 8.44446 32.7517 10.0027 32.0554C8.9996 30.6733 8.41834 29.0302 8.32923 27.3247C8.24012 25.6193 8.64697 23.9246 9.50059 22.4454C10.3542 20.9663 11.6181 19.7662 13.1393 18.9901C14.6605 18.214 16.374 17.8952 18.0726 18.0723C17.8955 16.3738 18.2143 14.6603 18.9903 13.139C19.7664 11.6178 20.9666 10.354 22.4457 9.50035C23.9248 8.64673 25.6195 8.23987 27.325 8.32898C29.0304 8.41809 30.6735 8.99935 32.0556 10.0025V10.0025ZM40.1255 9.18931C39.5345 9.19022 38.9498 9.30965 38.4058 9.54051C37.8618 9.77138 37.3696 10.109 36.9584 10.5334C36.5472 10.9578 36.2253 11.4604 36.0117 12.0114C35.7981 12.5624 35.6972 13.1506 35.7149 13.7413L35.7591 14.1435C35.8121 14.4838 35.8873 14.9213 35.9977 15.4516C36.2143 16.5167 36.5369 17.8469 36.9391 19.3716C37.7434 22.4122 38.8306 26.0582 39.9266 29.5982L40.1255 30.2346L40.3244 29.5982C41.4204 26.0626 42.5075 22.4122 43.3119 19.3716C43.714 17.8469 44.0367 16.5167 44.2532 15.4516C44.3697 14.8869 44.4641 14.3178 44.5361 13.7457L44.5449 13.6087C44.5449 12.4366 44.0793 11.3125 43.2505 10.4837C42.4217 9.65492 41.2976 9.18931 40.1255 9.18931V9.18931ZM13.609 44.5446L13.7416 44.5358L14.1437 44.4916C14.5821 44.4252 15.0183 44.3456 15.4519 44.253C16.5169 44.0364 17.8472 43.7138 19.3719 43.3116C22.8002 42.3837 26.2097 41.3877 29.5984 40.3241L30.2348 40.1252L29.5984 39.9264C26.2097 38.8628 22.8002 37.8667 19.3719 36.9388C18.074 36.5894 16.7669 36.2755 15.4519 35.9975C14.8872 35.8809 14.3181 35.7866 13.746 35.7146L13.609 35.7058C12.4369 35.7058 11.3128 36.1714 10.484 37.0002C9.65517 37.829 9.18955 38.9531 9.18955 40.1252C9.18955 41.2973 9.65517 42.4214 10.484 43.2502C11.3128 44.079 12.4369 44.5446 13.609 44.5446V44.5446ZM44.5449 66.6417L44.5361 66.5091C44.464 65.937 44.3697 65.368 44.2532 64.8032C43.9759 63.4866 43.662 62.178 43.3119 60.8788C42.384 57.4505 41.3879 54.041 40.3244 50.6523L40.1255 50.0159L39.9266 50.6523C38.8306 54.1878 37.7434 57.8382 36.9391 60.8788C36.5369 62.4035 36.2143 63.7338 35.9977 64.7988C35.8812 65.3636 35.7869 65.9326 35.7149 66.5047L35.7061 66.6417C35.7061 67.8138 36.1717 68.9379 37.0005 69.7667C37.8293 70.5955 38.9534 71.0611 40.1255 71.0611C41.2976 71.0611 42.4217 70.5955 43.2505 69.7667C44.0793 68.9379 44.5449 67.8138 44.5449 66.6417ZM19.3719 57.2107L19.4824 57.1356C19.9429 56.7878 20.3896 56.4222 20.8215 56.0395C21.6346 55.3148 22.6246 54.3734 23.7427 53.2597C26.2492 50.7426 28.7054 48.1759 31.1099 45.5611L31.5651 45.0706L30.9154 45.2164C27.4475 45.9906 23.9952 46.8334 20.5607 47.7443C19.0404 48.1553 17.7323 48.5398 16.6981 48.8845C16.1498 49.0668 15.6088 49.2702 15.0762 49.4944L14.9569 49.5563C14.4502 49.8443 14.0055 50.2298 13.6484 50.6904C13.2913 51.151 13.0289 51.6777 12.8762 52.2402C12.7235 52.8027 12.6835 53.3898 12.7587 53.9678C12.8338 54.5457 13.0225 55.1031 13.3139 55.6079C13.6053 56.1126 13.9937 56.5548 14.4567 56.9088C14.9197 57.2628 15.4481 57.5218 16.0116 57.6707C16.5751 57.8197 17.1624 57.8558 17.7399 57.7768C18.3174 57.6979 18.8735 57.5055 19.3763 57.2107H19.3719ZM24.6575 66.9157C25.6726 67.5018 26.8788 67.6606 28.011 67.3572C29.1431 67.0539 30.1084 66.3132 30.6944 65.2982L30.7563 65.1789C30.8005 65.0905 30.8491 64.9668 30.9154 64.8077C31.078 64.3953 31.2283 63.9782 31.3662 63.557C31.7109 62.5272 32.0954 61.2147 32.5064 59.6944C33.4176 56.26 34.2604 52.8077 35.0343 49.3397L35.1801 48.6901L34.694 49.1408C32.0779 51.5454 29.5097 54.0016 26.991 56.508C26.0386 57.4554 25.1116 58.428 24.2112 59.4248C23.8286 59.8583 23.463 60.3065 23.1151 60.7683L23.04 60.8788C22.454 61.8939 22.2952 63.1001 22.5985 64.2323C22.9019 65.3644 23.6425 66.3297 24.6575 66.9157V66.9157ZM65.2985 30.6942C66.3053 30.104 67.0377 29.1395 67.336 28.0112C67.6343 26.883 67.4742 25.6825 66.8907 24.6719C66.3072 23.6612 65.3476 22.9224 64.2213 22.6166C63.0951 22.3108 61.8936 22.463 60.8791 23.0398L60.7686 23.1149C60.3079 23.4624 59.8612 23.8281 59.4295 24.2109C58.4306 25.1107 57.4565 26.0377 56.5083 26.9907C54.0018 29.5079 51.5456 32.0746 49.1411 34.6893L48.6903 35.1799L49.34 35.0341C52.8065 34.2601 56.2573 33.4173 59.6902 32.5062C61.2149 32.0951 62.5275 31.7107 63.5572 31.3659C64.1056 31.184 64.6467 30.9805 65.1792 30.7561C65.2195 30.7366 65.2593 30.716 65.2985 30.6942V30.6942ZM55.5934 13.3347C54.5784 12.7487 53.3721 12.5899 52.24 12.8932C51.1079 13.1966 50.1426 13.9372 49.5565 14.9522L49.4946 15.0715C49.4504 15.1599 49.4018 15.2837 49.3355 15.4428C49.173 15.8551 49.0227 16.2722 48.8848 16.6935C48.54 17.7232 48.1556 19.0358 47.7446 20.5605C46.8334 23.9935 45.9906 27.4442 45.2166 30.9107L45.0708 31.5604L45.5569 31.1096C48.173 28.705 50.7412 26.2488 53.26 23.7424C54.3737 22.6243 55.315 21.6344 56.0398 20.8256C56.4226 20.3923 56.7882 19.9441 57.1358 19.4821L57.2109 19.3716C57.797 18.3566 57.9558 17.1503 57.6524 16.0182C57.3491 14.8861 56.6085 13.9208 55.5934 13.3347V13.3347ZM66.642 44.5446C67.8141 44.5446 68.9382 44.079 69.767 43.2502C70.5958 42.4214 71.0614 41.2973 71.0614 40.1252C71.0614 38.9531 70.5958 37.829 69.767 37.0002C68.9382 36.1714 67.8141 35.7058 66.642 35.7058L66.5094 35.7146C65.9373 35.7866 65.3682 35.881 64.8035 35.9975C63.734 36.214 62.4038 36.5367 60.8791 36.9388C57.8385 37.7432 54.1925 38.8303 50.6525 39.9264L50.0161 40.1252L50.6525 40.3241C54.1881 41.4201 57.8385 42.5073 60.8791 43.3116C62.4038 43.7138 63.734 44.0364 64.7991 44.253C65.3638 44.3695 65.9329 44.4638 66.505 44.5358L66.642 44.5446ZM13.335 24.6573C13.0398 25.1696 12.8504 25.736 12.7781 26.3229C12.7058 26.9098 12.752 27.5052 12.9139 28.0739C13.0759 28.6426 13.3503 29.173 13.721 29.6337C14.0916 30.0944 14.551 30.4761 15.0718 30.7561L15.443 30.9107C15.7612 31.0433 16.1766 31.1936 16.6937 31.3659C17.7234 31.7107 19.036 32.0951 20.5563 32.5062C23.9908 33.4171 27.4431 34.2599 30.911 35.0341L31.5606 35.1799L31.1054 34.6893C28.7025 32.0746 26.2478 29.5078 23.7427 26.9907C22.7959 26.0377 21.8233 25.1108 20.8259 24.2109C20.3926 23.8281 19.9444 23.4625 19.4824 23.1149L19.3719 23.0398C18.3568 22.4537 17.1506 22.2949 16.0184 22.5983C14.8863 22.9016 13.921 23.6422 13.335 24.6573V24.6573ZM23.04 19.3716L23.1151 19.4821C23.4628 19.9426 23.8285 20.3893 24.2112 20.8212C24.9359 21.6344 25.8773 22.6243 26.991 23.7424C29.5081 26.249 32.0748 28.7052 34.6896 31.1096L35.1801 31.5604L35.0343 30.9107C34.2604 27.4442 33.4176 23.9935 32.5064 20.5605C32.0954 19.0358 31.7109 17.7232 31.3662 16.6935C31.1842 16.1451 30.9807 15.604 30.7563 15.0715L30.6944 14.9522C30.4064 14.4456 30.0209 14.0009 29.5603 13.6438C29.0997 13.2867 28.573 13.0242 28.0105 12.8715C27.448 12.7188 26.8609 12.6789 26.2829 12.754C25.705 12.8291 25.1476 13.0178 24.6428 13.3092C24.1381 13.6007 23.6959 13.9891 23.3419 14.452C22.9879 14.915 22.7289 15.4435 22.58 16.0069C22.431 16.5704 22.3949 17.1578 22.4739 17.7352C22.5528 18.3127 22.7452 18.8688 23.04 19.3716V19.3716ZM66.916 55.5932C67.502 54.5781 67.6608 53.3719 67.3575 52.2397C67.0541 51.1076 66.3135 50.1423 65.2985 49.5563L65.1792 49.4944C64.6467 49.27 64.1056 49.0665 63.5572 48.8845C62.5275 48.5398 61.2149 48.1553 59.6902 47.7443C56.2572 46.8331 52.8065 45.9903 49.34 45.2164L48.6903 45.0706L49.1411 45.5611C51.5456 48.1758 54.0018 50.7425 56.5083 53.2597C57.6264 54.3734 58.6163 55.3148 59.4251 56.0395C59.8582 56.4225 60.3064 56.7881 60.7686 57.1356L60.8791 57.2107C61.8941 57.7967 63.1004 57.9555 64.2325 57.6522C65.3646 57.3488 66.3299 56.6082 66.916 55.5932ZM49.5565 65.2982C50.1467 66.305 51.1112 67.0374 52.2395 67.3357C53.3677 67.634 54.5682 67.474 55.5788 66.8904C56.5895 66.3069 57.3283 65.3473 57.6341 64.2211C57.9399 63.0948 57.7878 61.8933 57.2109 60.8788L57.1358 60.7683C56.7879 60.308 56.4223 59.8613 56.0398 59.4292C55.14 58.4304 54.213 57.4563 53.26 56.508C50.743 54.0014 48.1763 51.5451 45.5614 49.1408L45.0708 48.6901L45.2166 49.3397C45.9906 52.8062 46.8334 56.257 47.7446 59.69C48.1556 61.2147 48.54 62.5272 48.8848 63.557C49.0667 64.1054 49.2702 64.6465 49.4946 65.1789C49.5142 65.2192 49.5348 65.259 49.5565 65.2982V65.2982ZM40.1255 46.7544C41.8836 46.7544 43.5698 46.0559 44.813 44.8127C46.0562 43.5695 46.7546 41.8834 46.7546 40.1252C46.7546 38.3671 46.0562 36.6809 44.813 35.4377C43.5698 34.1945 41.8836 33.4961 40.1255 33.4961C38.3673 33.4961 36.6812 34.1945 35.438 35.4377C34.1948 36.6809 33.4963 38.3671 33.4963 40.1252C33.4963 41.8834 34.1948 43.5695 35.438 44.8127C36.6812 46.0559 38.3673 46.7544 40.1255 46.7544V46.7544Z"/>
</mask>
<path d="M32.0556 10.0025C32.7519 8.44422 33.8844 7.12088 35.3165 6.19227C36.7485 5.26367 38.4187 4.76953 40.1255 4.76953C41.8322 4.76953 43.5025 5.26367 44.9345 6.19227C46.3665 7.12088 47.4991 8.44422 48.1953 10.0025C49.5774 8.99935 51.2205 8.41809 52.926 8.32898C54.6314 8.23987 56.3262 8.64673 57.8053 9.50035C59.2844 10.354 60.4845 11.6178 61.2606 13.139C62.0367 14.6603 62.3555 16.3738 62.1784 18.0723C63.8769 17.8952 65.5904 18.214 67.1117 18.9901C68.6329 19.7662 69.8967 20.9663 70.7504 22.4454C71.604 23.9246 72.0108 25.6193 71.9217 27.3247C71.8326 29.0302 71.2514 30.6733 70.2482 32.0554C71.8065 32.7517 73.1298 33.8842 74.0584 35.3162C74.987 36.7482 75.4812 38.4185 75.4812 40.1252C75.4812 41.832 74.987 43.5022 74.0584 44.9342C73.1298 46.3663 71.8065 47.4988 70.2482 48.1951C71.2514 49.5772 71.8326 51.2203 71.9217 52.9257C72.0108 54.6312 71.604 56.3259 70.7504 57.805C69.8967 59.2841 68.6329 60.4843 67.1117 61.2604C65.5904 62.0364 63.8769 62.3552 62.1784 62.1781C62.3555 63.8767 62.0367 65.5902 61.2606 67.1114C60.4845 68.6326 59.2844 69.8965 57.8053 70.7501C56.3262 71.6037 54.6314 72.0106 52.926 71.9215C51.2205 71.8324 49.5774 71.2511 48.1953 70.248C47.4991 71.8062 46.3665 73.1296 44.9345 74.0582C43.5025 74.9868 41.8322 75.4809 40.1255 75.4809C38.4187 75.4809 36.7485 74.9868 35.3165 74.0582C33.8844 73.1296 32.7519 71.8062 32.0556 70.248C30.6735 71.2511 29.0304 71.8324 27.325 71.9215C25.6195 72.0106 23.9248 71.6037 22.4457 70.7501C20.9666 69.8965 19.7664 68.6326 18.9903 67.1114C18.2143 65.5902 17.8955 63.8767 18.0726 62.1781C16.374 62.3552 14.6605 62.0364 13.1393 61.2604C11.6181 60.4843 10.3542 59.2841 9.50059 57.805C8.64697 56.3259 8.24012 54.6312 8.32923 52.9257C8.41834 51.2203 8.9996 49.5772 10.0027 48.1951C8.44446 47.4988 7.12112 46.3663 6.19252 44.9342C5.26392 43.5022 4.76978 41.832 4.76978 40.1252C4.76978 38.4185 5.26392 36.7482 6.19252 35.3162C7.12112 33.8842 8.44446 32.7517 10.0027 32.0554C8.9996 30.6733 8.41834 29.0302 8.32923 27.3247C8.24012 25.6193 8.64697 23.9246 9.50059 22.4454C10.3542 20.9663 11.6181 19.7662 13.1393 18.9901C14.6605 18.214 16.374 17.8952 18.0726 18.0723C17.8955 16.3738 18.2143 14.6603 18.9903 13.139C19.7664 11.6178 20.9666 10.354 22.4457 9.50035C23.9248 8.64673 25.6195 8.23987 27.325 8.32898C29.0304 8.41809 30.6735 8.99935 32.0556 10.0025V10.0025ZM40.1255 9.18931C39.5345 9.19022 38.9498 9.30965 38.4058 9.54051C37.8618 9.77138 37.3696 10.109 36.9584 10.5334C36.5472 10.9578 36.2253 11.4604 36.0117 12.0114C35.7981 12.5624 35.6972 13.1506 35.7149 13.7413L35.7591 14.1435C35.8121 14.4838 35.8873 14.9213 35.9977 15.4516C36.2143 16.5167 36.5369 17.8469 36.9391 19.3716C37.7434 22.4122 38.8306 26.0582 39.9266 29.5982L40.1255 30.2346L40.3244 29.5982C41.4204 26.0626 42.5075 22.4122 43.3119 19.3716C43.714 17.8469 44.0367 16.5167 44.2532 15.4516C44.3697 14.8869 44.4641 14.3178 44.5361 13.7457L44.5449 13.6087C44.5449 12.4366 44.0793 11.3125 43.2505 10.4837C42.4217 9.65492 41.2976 9.18931 40.1255 9.18931V9.18931ZM13.609 44.5446L13.7416 44.5358L14.1437 44.4916C14.5821 44.4252 15.0183 44.3456 15.4519 44.253C16.5169 44.0364 17.8472 43.7138 19.3719 43.3116C22.8002 42.3837 26.2097 41.3877 29.5984 40.3241L30.2348 40.1252L29.5984 39.9264C26.2097 38.8628 22.8002 37.8667 19.3719 36.9388C18.074 36.5894 16.7669 36.2755 15.4519 35.9975C14.8872 35.8809 14.3181 35.7866 13.746 35.7146L13.609 35.7058C12.4369 35.7058 11.3128 36.1714 10.484 37.0002C9.65517 37.829 9.18955 38.9531 9.18955 40.1252C9.18955 41.2973 9.65517 42.4214 10.484 43.2502C11.3128 44.079 12.4369 44.5446 13.609 44.5446V44.5446ZM44.5449 66.6417L44.5361 66.5091C44.464 65.937 44.3697 65.368 44.2532 64.8032C43.9759 63.4866 43.662 62.178 43.3119 60.8788C42.384 57.4505 41.3879 54.041 40.3244 50.6523L40.1255 50.0159L39.9266 50.6523C38.8306 54.1878 37.7434 57.8382 36.9391 60.8788C36.5369 62.4035 36.2143 63.7338 35.9977 64.7988C35.8812 65.3636 35.7869 65.9326 35.7149 66.5047L35.7061 66.6417C35.7061 67.8138 36.1717 68.9379 37.0005 69.7667C37.8293 70.5955 38.9534 71.0611 40.1255 71.0611C41.2976 71.0611 42.4217 70.5955 43.2505 69.7667C44.0793 68.9379 44.5449 67.8138 44.5449 66.6417ZM19.3719 57.2107L19.4824 57.1356C19.9429 56.7878 20.3896 56.4222 20.8215 56.0395C21.6346 55.3148 22.6246 54.3734 23.7427 53.2597C26.2492 50.7426 28.7054 48.1759 31.1099 45.5611L31.5651 45.0706L30.9154 45.2164C27.4475 45.9906 23.9952 46.8334 20.5607 47.7443C19.0404 48.1553 17.7323 48.5398 16.6981 48.8845C16.1498 49.0668 15.6088 49.2702 15.0762 49.4944L14.9569 49.5563C14.4502 49.8443 14.0055 50.2298 13.6484 50.6904C13.2913 51.151 13.0289 51.6777 12.8762 52.2402C12.7235 52.8027 12.6835 53.3898 12.7587 53.9678C12.8338 54.5457 13.0225 55.1031 13.3139 55.6079C13.6053 56.1126 13.9937 56.5548 14.4567 56.9088C14.9197 57.2628 15.4481 57.5218 16.0116 57.6707C16.5751 57.8197 17.1624 57.8558 17.7399 57.7768C18.3174 57.6979 18.8735 57.5055 19.3763 57.2107H19.3719ZM24.6575 66.9157C25.6726 67.5018 26.8788 67.6606 28.011 67.3572C29.1431 67.0539 30.1084 66.3132 30.6944 65.2982L30.7563 65.1789C30.8005 65.0905 30.8491 64.9668 30.9154 64.8077C31.078 64.3953 31.2283 63.9782 31.3662 63.557C31.7109 62.5272 32.0954 61.2147 32.5064 59.6944C33.4176 56.26 34.2604 52.8077 35.0343 49.3397L35.1801 48.6901L34.694 49.1408C32.0779 51.5454 29.5097 54.0016 26.991 56.508C26.0386 57.4554 25.1116 58.428 24.2112 59.4248C23.8286 59.8583 23.463 60.3065 23.1151 60.7683L23.04 60.8788C22.454 61.8939 22.2952 63.1001 22.5985 64.2323C22.9019 65.3644 23.6425 66.3297 24.6575 66.9157V66.9157ZM65.2985 30.6942C66.3053 30.104 67.0377 29.1395 67.336 28.0112C67.6343 26.883 67.4742 25.6825 66.8907 24.6719C66.3072 23.6612 65.3476 22.9224 64.2213 22.6166C63.0951 22.3108 61.8936 22.463 60.8791 23.0398L60.7686 23.1149C60.3079 23.4624 59.8612 23.8281 59.4295 24.2109C58.4306 25.1107 57.4565 26.0377 56.5083 26.9907C54.0018 29.5079 51.5456 32.0746 49.1411 34.6893L48.6903 35.1799L49.34 35.0341C52.8065 34.2601 56.2573 33.4173 59.6902 32.5062C61.2149 32.0951 62.5275 31.7107 63.5572 31.3659C64.1056 31.184 64.6467 30.9805 65.1792 30.7561C65.2195 30.7366 65.2593 30.716 65.2985 30.6942V30.6942ZM55.5934 13.3347C54.5784 12.7487 53.3721 12.5899 52.24 12.8932C51.1079 13.1966 50.1426 13.9372 49.5565 14.9522L49.4946 15.0715C49.4504 15.1599 49.4018 15.2837 49.3355 15.4428C49.173 15.8551 49.0227 16.2722 48.8848 16.6935C48.54 17.7232 48.1556 19.0358 47.7446 20.5605C46.8334 23.9935 45.9906 27.4442 45.2166 30.9107L45.0708 31.5604L45.5569 31.1096C48.173 28.705 50.7412 26.2488 53.26 23.7424C54.3737 22.6243 55.315 21.6344 56.0398 20.8256C56.4226 20.3923 56.7882 19.9441 57.1358 19.4821L57.2109 19.3716C57.797 18.3566 57.9558 17.1503 57.6524 16.0182C57.3491 14.8861 56.6085 13.9208 55.5934 13.3347V13.3347ZM66.642 44.5446C67.8141 44.5446 68.9382 44.079 69.767 43.2502C70.5958 42.4214 71.0614 41.2973 71.0614 40.1252C71.0614 38.9531 70.5958 37.829 69.767 37.0002C68.9382 36.1714 67.8141 35.7058 66.642 35.7058L66.5094 35.7146C65.9373 35.7866 65.3682 35.881 64.8035 35.9975C63.734 36.214 62.4038 36.5367 60.8791 36.9388C57.8385 37.7432 54.1925 38.8303 50.6525 39.9264L50.0161 40.1252L50.6525 40.3241C54.1881 41.4201 57.8385 42.5073 60.8791 43.3116C62.4038 43.7138 63.734 44.0364 64.7991 44.253C65.3638 44.3695 65.9329 44.4638 66.505 44.5358L66.642 44.5446ZM13.335 24.6573C13.0398 25.1696 12.8504 25.736 12.7781 26.3229C12.7058 26.9098 12.752 27.5052 12.9139 28.0739C13.0759 28.6426 13.3503 29.173 13.721 29.6337C14.0916 30.0944 14.551 30.4761 15.0718 30.7561L15.443 30.9107C15.7612 31.0433 16.1766 31.1936 16.6937 31.3659C17.7234 31.7107 19.036 32.0951 20.5563 32.5062C23.9908 33.4171 27.4431 34.2599 30.911 35.0341L31.5606 35.1799L31.1054 34.6893C28.7025 32.0746 26.2478 29.5078 23.7427 26.9907C22.7959 26.0377 21.8233 25.1108 20.8259 24.2109C20.3926 23.8281 19.9444 23.4625 19.4824 23.1149L19.3719 23.0398C18.3568 22.4537 17.1506 22.2949 16.0184 22.5983C14.8863 22.9016 13.921 23.6422 13.335 24.6573V24.6573ZM23.04 19.3716L23.1151 19.4821C23.4628 19.9426 23.8285 20.3893 24.2112 20.8212C24.9359 21.6344 25.8773 22.6243 26.991 23.7424C29.5081 26.249 32.0748 28.7052 34.6896 31.1096L35.1801 31.5604L35.0343 30.9107C34.2604 27.4442 33.4176 23.9935 32.5064 20.5605C32.0954 19.0358 31.7109 17.7232 31.3662 16.6935C31.1842 16.1451 30.9807 15.604 30.7563 15.0715L30.6944 14.9522C30.4064 14.4456 30.0209 14.0009 29.5603 13.6438C29.0997 13.2867 28.573 13.0242 28.0105 12.8715C27.448 12.7188 26.8609 12.6789 26.2829 12.754C25.705 12.8291 25.1476 13.0178 24.6428 13.3092C24.1381 13.6007 23.6959 13.9891 23.3419 14.452C22.9879 14.915 22.7289 15.4435 22.58 16.0069C22.431 16.5704 22.3949 17.1578 22.4739 17.7352C22.5528 18.3127 22.7452 18.8688 23.04 19.3716V19.3716ZM66.916 55.5932C67.502 54.5781 67.6608 53.3719 67.3575 52.2397C67.0541 51.1076 66.3135 50.1423 65.2985 49.5563L65.1792 49.4944C64.6467 49.27 64.1056 49.0665 63.5572 48.8845C62.5275 48.5398 61.2149 48.1553 59.6902 47.7443C56.2572 46.8331 52.8065 45.9903 49.34 45.2164L48.6903 45.0706L49.1411 45.5611C51.5456 48.1758 54.0018 50.7425 56.5083 53.2597C57.6264 54.3734 58.6163 55.3148 59.4251 56.0395C59.8582 56.4225 60.3064 56.7881 60.7686 57.1356L60.8791 57.2107C61.8941 57.7967 63.1004 57.9555 64.2325 57.6522C65.3646 57.3488 66.3299 56.6082 66.916 55.5932ZM49.5565 65.2982C50.1467 66.305 51.1112 67.0374 52.2395 67.3357C53.3677 67.634 54.5682 67.474 55.5788 66.8904C56.5895 66.3069 57.3283 65.3473 57.6341 64.2211C57.9399 63.0948 57.7878 61.8933 57.2109 60.8788L57.1358 60.7683C56.7879 60.308 56.4223 59.8613 56.0398 59.4292C55.14 58.4304 54.213 57.4563 53.26 56.508C50.743 54.0014 48.1763 51.5451 45.5614 49.1408L45.0708 48.6901L45.2166 49.3397C45.9906 52.8062 46.8334 56.257 47.7446 59.69C48.1556 61.2147 48.54 62.5272 48.8848 63.557C49.0667 64.1054 49.2702 64.6465 49.4946 65.1789C49.5142 65.2192 49.5348 65.259 49.5565 65.2982V65.2982ZM40.1255 46.7544C41.8836 46.7544 43.5698 46.0559 44.813 44.8127C46.0562 43.5695 46.7546 41.8834 46.7546 40.1252C46.7546 38.3671 46.0562 36.6809 44.813 35.4377C43.5698 34.1945 41.8836 33.4961 40.1255 33.4961C38.3673 33.4961 36.6812 34.1945 35.438 35.4377C34.1948 36.6809 33.4963 38.3671 33.4963 40.1252C33.4963 41.8834 34.1948 43.5695 35.438 44.8127C36.6812 46.0559 38.3673 46.7544 40.1255 46.7544V46.7544Z" fill="#FDE905" stroke="#8E8B8B" stroke-width="0.4" mask="url(#path-1-inside-1_38_2)"/>
<mask id="path-2-inside-2_38_2" fill="white">
<path d="M52.4749 18.3952C53.7502 17.9076 55.1395 17.7997 56.4748 18.0845C57.8102 18.3692 59.0345 19.0345 60 20C60.9655 20.9655 61.6308 22.1898 61.9155 23.5252C62.2003 24.8605 62.0924 26.2498 61.6048 27.5251C62.9541 27.7395 64.2123 28.3402 65.2275 29.2545C66.2426 30.1688 66.9711 31.3576 67.325 32.6772C67.6788 33.9968 67.6428 35.3906 67.2213 36.6902C66.7997 37.9897 66.0108 39.1393 64.9498 40C66.0108 40.8607 66.7997 42.0103 67.2213 43.3098C67.6428 44.6094 67.6788 46.0032 67.325 47.3228C66.9711 48.6424 66.2426 49.8312 65.2275 50.7455C64.2123 51.6598 62.9541 52.2605 61.6048 52.4749C62.0924 53.7502 62.2003 55.1395 61.9155 56.4748C61.6308 57.8102 60.9655 59.0345 60 60C59.0345 60.9655 57.8102 61.6308 56.4748 61.9155C55.1395 62.2003 53.7502 62.0924 52.4749 61.6048C52.2605 62.9541 51.6598 64.2123 50.7455 65.2275C49.8312 66.2426 48.6424 66.9711 47.3228 67.325C46.0032 67.6788 44.6094 67.6428 43.3098 67.2213C42.0103 66.7997 40.8607 66.0108 40 64.9498C39.1393 66.0108 37.9897 66.7997 36.6902 67.2213C35.3906 67.6428 33.9968 67.6788 32.6772 67.325C31.3576 66.9711 30.1688 66.2426 29.2545 65.2275C28.3402 64.2123 27.7395 62.9541 27.5251 61.6048C26.2498 62.0924 24.8605 62.2003 23.5252 61.9155C22.1898 61.6308 20.9655 60.9655 20 60C19.0345 59.0345 18.3692 57.8102 18.0845 56.4748C17.7997 55.1395 17.9076 53.7502 18.3952 52.4749C17.0459 52.2605 15.7877 51.6598 14.7725 50.7455C13.7574 49.8312 13.0289 48.6424 12.675 47.3228C12.3212 46.0032 12.3572 44.6094 12.7787 43.3098C13.2003 42.0103 13.9892 40.8607 15.0502 40C13.9892 39.1393 13.2003 37.9897 12.7787 36.6902C12.3572 35.3906 12.3212 33.9968 12.675 32.6772C13.0289 31.3576 13.7574 30.1688 14.7725 29.2545C15.7877 28.3402 17.0459 27.7395 18.3952 27.5251C17.9076 26.2498 17.7997 24.8605 18.0845 23.5252C18.3692 22.1898 19.0345 20.9655 20 20C20.9655 19.0345 22.1898 18.3692 23.5252 18.0845C24.8605 17.7997 26.2498 17.9076 27.5251 18.3952C27.7395 17.0459 28.3402 15.7877 29.2545 14.7725C30.1688 13.7574 31.3576 13.0289 32.6772 12.675C33.9968 12.3212 35.3906 12.3572 36.6902 12.7787C37.9897 13.2003 39.1393 13.9892 40 15.0503C40.8607 13.9892 42.0103 13.2003 43.3098 12.7787C44.6094 12.3572 46.0032 12.3212 47.3228 12.675C48.6424 13.0289 49.8312 13.7574 50.7455 14.7725C51.6598 15.7877 52.2605 17.0459 52.4749 18.3952ZM57.4998 22.5002C57.165 22.1664 56.7667 21.9032 56.3284 21.7261C55.89 21.5489 55.4206 21.4615 54.9479 21.469C54.4753 21.4764 54.0089 21.5786 53.5763 21.7695C53.1438 21.9603 52.754 22.236 52.4299 22.5802L52.2274 22.8327C52.0649 23.0552 51.8599 23.3452 51.6224 23.7077C51.1424 24.4327 50.5724 25.3676 49.9374 26.4576C48.6724 28.6326 47.2249 31.3101 45.8424 33.9326L45.5949 34.4051L46.0674 34.1576C48.6874 32.7776 51.3674 31.3276 53.5424 30.0626C54.6324 29.4276 55.5673 28.8576 56.2923 28.3776C56.6777 28.1241 57.053 27.8555 57.4173 27.5726L57.4998 27.5001C58.1629 26.8371 58.5353 25.9378 58.5353 25.0002C58.5353 24.0625 58.1629 23.1632 57.4998 22.5002ZM22.5002 27.5001L22.5802 27.5701L22.8327 27.7726C23.1182 27.983 23.41 28.1848 23.7077 28.3776C24.4327 28.8576 25.3676 29.4276 26.4576 30.0626C28.9219 31.477 31.414 32.8423 33.9326 34.1576L34.4051 34.4051L34.1576 33.9326C32.8423 31.414 31.477 28.9219 30.0626 26.4576C29.5261 25.5258 28.9642 24.6088 28.3776 23.7077C28.1241 23.3223 27.8556 22.947 27.5726 22.5827L27.5001 22.5002C26.8371 21.8371 25.9378 21.4647 25.0001 21.4647C24.0625 21.4647 23.1632 21.8371 22.5002 22.5002C21.8371 23.1632 21.4647 24.0625 21.4647 25.0002C21.4647 25.9378 21.8371 26.8371 22.5002 27.5001ZM27.5001 57.4998L27.5701 57.4198C27.853 57.0555 28.1216 56.6802 28.3751 56.2948C28.9631 55.3932 29.5258 54.4753 30.0626 53.5424C31.477 51.0781 32.8423 48.586 34.1576 46.0674L34.4051 45.5949L33.9326 45.8424C31.3126 47.2224 28.6326 48.6724 26.4576 49.9374C25.3676 50.5724 24.4327 51.1424 23.7077 51.6224C23.3223 51.8759 22.947 52.1445 22.5827 52.4274L22.5002 52.4999C21.8371 53.1629 21.4647 54.0622 21.4647 54.9999C21.4647 55.9375 21.8371 56.8368 22.5002 57.4998C23.1632 58.1629 24.0625 58.5354 25.0001 58.5354C25.9378 58.5354 26.8371 58.1629 27.5001 57.4998ZM18.5952 37.925L18.7002 37.945C19.1574 38.0088 19.6169 38.0547 20.0777 38.0825C20.9477 38.1325 22.0402 38.16 23.3027 38.1625C26.1444 38.1565 28.9858 38.094 31.8251 37.975L32.3601 37.955L31.9101 37.67C29.5104 36.1462 27.0808 34.6701 24.6227 33.2426C23.5302 32.6151 22.5727 32.0926 21.7927 31.7026C21.3794 31.4955 20.9583 31.3046 20.5302 31.1301L20.4277 31.0976C19.9781 30.9739 19.5085 30.9404 19.046 30.999C18.5834 31.0576 18.137 31.207 17.7324 31.4388C17.3279 31.6706 16.9731 31.9802 16.6887 32.3496C16.4042 32.719 16.1957 33.1411 16.075 33.5915C15.9543 34.0419 15.9239 34.5117 15.9856 34.9738C16.0472 35.436 16.1996 35.8814 16.4341 36.2844C16.6686 36.6874 16.9805 37.0401 17.3518 37.3221C17.7231 37.6041 18.1465 37.8098 18.5977 37.9275L18.5952 37.925ZM16.0952 46.4049C16.3379 47.3106 16.9305 48.0828 17.7425 48.5517C18.5545 49.0205 19.5195 49.1476 20.4252 48.9049L20.5277 48.8724C20.6027 48.8474 20.7002 48.8049 20.8277 48.7524C21.1529 48.6111 21.4739 48.4602 21.7902 48.2999C22.5677 47.9124 23.5277 47.3874 24.6202 46.7599C27.0784 45.3326 29.508 43.8565 31.9076 42.3325L32.3576 42.0475L31.8276 42.0275C28.9875 41.9078 26.1453 41.8445 23.3027 41.8375C22.228 41.8346 21.1535 41.8605 20.0802 41.915C19.6186 41.9438 19.1582 41.9905 18.7002 42.055L18.5952 42.075C17.6895 42.3177 16.9173 42.9102 16.4485 43.7222C15.9797 44.5342 15.8526 45.4992 16.0952 46.4049ZM59.5748 48.9049C60.4782 49.1406 61.4381 49.0093 62.2451 48.5398C63.052 48.0703 63.6406 47.3007 63.8822 46.3989C64.1238 45.4971 63.9989 44.5363 63.5348 43.7263C63.0707 42.9162 62.305 42.3226 61.4048 42.075L61.2998 42.055C60.8426 41.991 60.3831 41.9451 59.9223 41.9175C58.8482 41.8614 57.7728 41.8348 56.6973 41.8375C53.8556 41.8436 51.0142 41.9061 48.1749 42.025L47.6424 42.0475L48.0924 42.3325C50.4911 43.8556 52.9199 45.3309 55.3773 46.7574C56.4723 47.3874 57.4323 47.9124 58.2098 48.2999C58.623 48.5072 59.0441 48.6982 59.4723 48.8724C59.5062 48.8842 59.5403 48.8951 59.5748 48.9049ZM63.9048 33.5951C63.6621 32.6894 63.0695 31.9172 62.2575 31.4483C61.4455 30.9795 60.4805 30.8524 59.5748 31.0951L59.4723 31.1276C59.3973 31.1526 59.2998 31.1951 59.1723 31.2476C58.8471 31.3889 58.5261 31.5398 58.2098 31.7001C57.4323 32.0876 56.4723 32.6126 55.3773 33.2426C52.9199 34.6691 50.4912 36.1444 48.0924 37.6675L47.6424 37.9525L48.1724 37.9725C51.0125 38.0922 53.8547 38.1555 56.6973 38.1625C57.9598 38.16 59.0523 38.1325 59.9198 38.085C60.3815 38.0564 60.8418 38.0097 61.2998 37.945L61.4048 37.925C62.3105 37.6823 63.0827 37.0898 63.5515 36.2778C64.0203 35.4658 64.1474 34.5008 63.9048 33.5951ZM52.4999 57.4998C53.1629 58.1629 54.0622 58.5354 54.9999 58.5354C55.9375 58.5354 56.8368 58.1629 57.4998 57.4998C58.1629 56.8368 58.5353 55.9375 58.5353 54.9999C58.5353 54.0622 58.1629 53.1629 57.4998 52.4999L57.4198 52.4299C57.0555 52.147 56.6802 51.8784 56.2948 51.6249C55.5673 51.1424 54.6324 50.5724 53.5424 49.9374C51.3674 48.6724 48.6899 47.2249 46.0674 45.8424L45.5949 45.5949L45.8424 46.0674C47.2224 48.6874 48.6724 51.3674 49.9374 53.5424C50.5724 54.6324 51.1424 55.5673 51.6224 56.2923C51.8759 56.6777 52.1445 57.053 52.4274 57.4173L52.4999 57.4998ZM33.5951 16.0952C33.1383 16.2181 32.7107 16.4314 32.3378 16.7224C31.965 17.0135 31.6543 17.3765 31.4242 17.7898C31.1941 18.2031 31.0493 18.6584 30.9983 19.1287C30.9474 19.599 30.9913 20.0747 31.1276 20.5277L31.2501 20.8252C31.3551 21.0802 31.5051 21.4002 31.7001 21.7902C32.0876 22.5677 32.6126 23.5277 33.2401 24.6202C34.6676 27.0783 36.1437 29.5079 37.6675 31.9076L37.9525 32.3576L37.9725 31.8226C38.0923 28.9842 38.1557 26.1436 38.1625 23.3027C38.166 22.228 38.1402 21.1535 38.085 20.0802C38.0564 19.6186 38.0097 19.1582 37.945 18.7002L37.925 18.5952C37.6823 17.6895 37.0898 16.9173 36.2778 16.4485C35.4658 15.9797 34.5008 15.8526 33.5951 16.0952ZM42.075 18.5952L42.055 18.7002C41.9912 19.1574 41.9453 19.6169 41.9175 20.0777C41.8675 20.9477 41.84 22.0402 41.8375 23.3027C41.8435 26.1444 41.906 28.9858 42.025 31.8251L42.0475 32.3576L42.3325 31.9076C43.8556 29.5089 45.3309 27.0801 46.7574 24.6227C47.3874 23.5277 47.9124 22.5677 48.2999 21.7902C48.5072 21.377 48.6981 20.9558 48.8724 20.5277L48.9049 20.4252C49.0286 19.9756 49.0621 19.506 49.0035 19.0435C48.945 18.5809 48.7955 18.1345 48.5637 17.7299C48.3319 17.3254 48.0223 16.9707 47.6529 16.6862C47.2835 16.4018 46.8614 16.1932 46.411 16.0725C45.9607 15.9518 45.4909 15.9214 45.0287 15.9831C44.5665 16.0447 44.1211 16.1972 43.7181 16.4316C43.3151 16.6661 42.9624 16.978 42.6804 17.3493C42.3984 17.7206 42.1927 18.1441 42.075 18.5952ZM46.4049 63.9048C47.3106 63.6621 48.0828 63.0695 48.5517 62.2575C49.0205 61.4455 49.1476 60.4805 48.9049 59.5748L48.8724 59.4723C48.6982 59.0442 48.5072 58.623 48.2999 58.2098C47.9124 57.4323 47.3874 56.4723 46.7574 55.3773C45.3309 52.9199 43.8556 50.4912 42.3325 48.0924L42.0475 47.6424L42.025 48.1749C41.9061 51.0142 41.8436 53.8556 41.8375 56.6973C41.84 57.9598 41.8675 59.0523 41.915 59.9198C41.9434 60.3815 41.9901 60.8418 42.055 61.2998L42.075 61.4048C42.3177 62.3105 42.9102 63.0827 43.7222 63.5515C44.5342 64.0203 45.4992 64.1474 46.4049 63.9048ZM31.0951 59.5748C30.8594 60.4782 30.9907 61.4381 31.4602 62.2451C31.9297 63.052 32.6993 63.6406 33.6011 63.8822C34.5029 64.1238 35.4637 63.9989 36.2737 63.5348C37.0838 63.0707 37.6774 62.305 37.925 61.4048L37.945 61.2998C38.0086 60.8426 38.0545 60.3831 38.0825 59.9223C38.1385 58.8482 38.1652 57.7729 38.1625 56.6973C38.1567 53.8556 38.0942 51.0142 37.975 48.1749L37.9525 47.6424L37.6675 48.0924C36.1444 50.4911 34.6691 52.9199 33.2426 55.3773C32.6126 56.4723 32.0876 57.4323 31.7001 58.2098C31.4928 58.623 31.3018 59.0441 31.1276 59.4723C31.1159 59.5062 31.105 59.5404 31.0951 59.5748ZM36.25 43.75C37.2446 44.7445 38.5935 45.3033 40 45.3033C41.4065 45.3033 42.7554 44.7445 43.75 43.75C44.7445 42.7554 45.3032 41.4065 45.3032 40C45.3032 38.5935 44.7445 37.2446 43.75 36.25C42.7554 35.2555 41.4065 34.6968 40 34.6968C38.5935 34.6968 37.2446 35.2555 36.25 36.25C35.2555 37.2446 34.6968 38.5935 34.6968 40C34.6968 41.4065 35.2555 42.7554 36.25 43.75Z"/>
</mask>
<path d="M52.4749 18.3952C53.7502 17.9076 55.1395 17.7997 56.4748 18.0845C57.8102 18.3692 59.0345 19.0345 60 20C60.9655 20.9655 61.6308 22.1898 61.9155 23.5252C62.2003 24.8605 62.0924 26.2498 61.6048 27.5251C62.9541 27.7395 64.2123 28.3402 65.2275 29.2545C66.2426 30.1688 66.9711 31.3576 67.325 32.6772C67.6788 33.9968 67.6428 35.3906 67.2213 36.6902C66.7997 37.9897 66.0108 39.1393 64.9498 40C66.0108 40.8607 66.7997 42.0103 67.2213 43.3098C67.6428 44.6094 67.6788 46.0032 67.325 47.3228C66.9711 48.6424 66.2426 49.8312 65.2275 50.7455C64.2123 51.6598 62.9541 52.2605 61.6048 52.4749C62.0924 53.7502 62.2003 55.1395 61.9155 56.4748C61.6308 57.8102 60.9655 59.0345 60 60C59.0345 60.9655 57.8102 61.6308 56.4748 61.9155C55.1395 62.2003 53.7502 62.0924 52.4749 61.6048C52.2605 62.9541 51.6598 64.2123 50.7455 65.2275C49.8312 66.2426 48.6424 66.9711 47.3228 67.325C46.0032 67.6788 44.6094 67.6428 43.3098 67.2213C42.0103 66.7997 40.8607 66.0108 40 64.9498C39.1393 66.0108 37.9897 66.7997 36.6902 67.2213C35.3906 67.6428 33.9968 67.6788 32.6772 67.325C31.3576 66.9711 30.1688 66.2426 29.2545 65.2275C28.3402 64.2123 27.7395 62.9541 27.5251 61.6048C26.2498 62.0924 24.8605 62.2003 23.5252 61.9155C22.1898 61.6308 20.9655 60.9655 20 60C19.0345 59.0345 18.3692 57.8102 18.0845 56.4748C17.7997 55.1395 17.9076 53.7502 18.3952 52.4749C17.0459 52.2605 15.7877 51.6598 14.7725 50.7455C13.7574 49.8312 13.0289 48.6424 12.675 47.3228C12.3212 46.0032 12.3572 44.6094 12.7787 43.3098C13.2003 42.0103 13.9892 40.8607 15.0502 40C13.9892 39.1393 13.2003 37.9897 12.7787 36.6902C12.3572 35.3906 12.3212 33.9968 12.675 32.6772C13.0289 31.3576 13.7574 30.1688 14.7725 29.2545C15.7877 28.3402 17.0459 27.7395 18.3952 27.5251C17.9076 26.2498 17.7997 24.8605 18.0845 23.5252C18.3692 22.1898 19.0345 20.9655 20 20C20.9655 19.0345 22.1898 18.3692 23.5252 18.0845C24.8605 17.7997 26.2498 17.9076 27.5251 18.3952C27.7395 17.0459 28.3402 15.7877 29.2545 14.7725C30.1688 13.7574 31.3576 13.0289 32.6772 12.675C33.9968 12.3212 35.3906 12.3572 36.6902 12.7787C37.9897 13.2003 39.1393 13.9892 40 15.0503C40.8607 13.9892 42.0103 13.2003 43.3098 12.7787C44.6094 12.3572 46.0032 12.3212 47.3228 12.675C48.6424 13.0289 49.8312 13.7574 50.7455 14.7725C51.6598 15.7877 52.2605 17.0459 52.4749 18.3952ZM57.4998 22.5002C57.165 22.1664 56.7667 21.9032 56.3284 21.7261C55.89 21.5489 55.4206 21.4615 54.9479 21.469C54.4753 21.4764 54.0089 21.5786 53.5763 21.7695C53.1438 21.9603 52.754 22.236 52.4299 22.5802L52.2274 22.8327C52.0649 23.0552 51.8599 23.3452 51.6224 23.7077C51.1424 24.4327 50.5724 25.3676 49.9374 26.4576C48.6724 28.6326 47.2249 31.3101 45.8424 33.9326L45.5949 34.4051L46.0674 34.1576C48.6874 32.7776 51.3674 31.3276 53.5424 30.0626C54.6324 29.4276 55.5673 28.8576 56.2923 28.3776C56.6777 28.1241 57.053 27.8555 57.4173 27.5726L57.4998 27.5001C58.1629 26.8371 58.5353 25.9378 58.5353 25.0002C58.5353 24.0625 58.1629 23.1632 57.4998 22.5002ZM22.5002 27.5001L22.5802 27.5701L22.8327 27.7726C23.1182 27.983 23.41 28.1848 23.7077 28.3776C24.4327 28.8576 25.3676 29.4276 26.4576 30.0626C28.9219 31.477 31.414 32.8423 33.9326 34.1576L34.4051 34.4051L34.1576 33.9326C32.8423 31.414 31.477 28.9219 30.0626 26.4576C29.5261 25.5258 28.9642 24.6088 28.3776 23.7077C28.1241 23.3223 27.8556 22.947 27.5726 22.5827L27.5001 22.5002C26.8371 21.8371 25.9378 21.4647 25.0001 21.4647C24.0625 21.4647 23.1632 21.8371 22.5002 22.5002C21.8371 23.1632 21.4647 24.0625 21.4647 25.0002C21.4647 25.9378 21.8371 26.8371 22.5002 27.5001ZM27.5001 57.4998L27.5701 57.4198C27.853 57.0555 28.1216 56.6802 28.3751 56.2948C28.9631 55.3932 29.5258 54.4753 30.0626 53.5424C31.477 51.0781 32.8423 48.586 34.1576 46.0674L34.4051 45.5949L33.9326 45.8424C31.3126 47.2224 28.6326 48.6724 26.4576 49.9374C25.3676 50.5724 24.4327 51.1424 23.7077 51.6224C23.3223 51.8759 22.947 52.1445 22.5827 52.4274L22.5002 52.4999C21.8371 53.1629 21.4647 54.0622 21.4647 54.9999C21.4647 55.9375 21.8371 56.8368 22.5002 57.4998C23.1632 58.1629 24.0625 58.5354 25.0001 58.5354C25.9378 58.5354 26.8371 58.1629 27.5001 57.4998ZM18.5952 37.925L18.7002 37.945C19.1574 38.0088 19.6169 38.0547 20.0777 38.0825C20.9477 38.1325 22.0402 38.16 23.3027 38.1625C26.1444 38.1565 28.9858 38.094 31.8251 37.975L32.3601 37.955L31.9101 37.67C29.5104 36.1462 27.0808 34.6701 24.6227 33.2426C23.5302 32.6151 22.5727 32.0926 21.7927 31.7026C21.3794 31.4955 20.9583 31.3046 20.5302 31.1301L20.4277 31.0976C19.9781 30.9739 19.5085 30.9404 19.046 30.999C18.5834 31.0576 18.137 31.207 17.7324 31.4388C17.3279 31.6706 16.9731 31.9802 16.6887 32.3496C16.4042 32.719 16.1957 33.1411 16.075 33.5915C15.9543 34.0419 15.9239 34.5117 15.9856 34.9738C16.0472 35.436 16.1996 35.8814 16.4341 36.2844C16.6686 36.6874 16.9805 37.0401 17.3518 37.3221C17.7231 37.6041 18.1465 37.8098 18.5977 37.9275L18.5952 37.925ZM16.0952 46.4049C16.3379 47.3106 16.9305 48.0828 17.7425 48.5517C18.5545 49.0205 19.5195 49.1476 20.4252 48.9049L20.5277 48.8724C20.6027 48.8474 20.7002 48.8049 20.8277 48.7524C21.1529 48.6111 21.4739 48.4602 21.7902 48.2999C22.5677 47.9124 23.5277 47.3874 24.6202 46.7599C27.0784 45.3326 29.508 43.8565 31.9076 42.3325L32.3576 42.0475L31.8276 42.0275C28.9875 41.9078 26.1453 41.8445 23.3027 41.8375C22.228 41.8346 21.1535 41.8605 20.0802 41.915C19.6186 41.9438 19.1582 41.9905 18.7002 42.055L18.5952 42.075C17.6895 42.3177 16.9173 42.9102 16.4485 43.7222C15.9797 44.5342 15.8526 45.4992 16.0952 46.4049ZM59.5748 48.9049C60.4782 49.1406 61.4381 49.0093 62.2451 48.5398C63.052 48.0703 63.6406 47.3007 63.8822 46.3989C64.1238 45.4971 63.9989 44.5363 63.5348 43.7263C63.0707 42.9162 62.305 42.3226 61.4048 42.075L61.2998 42.055C60.8426 41.991 60.3831 41.9451 59.9223 41.9175C58.8482 41.8614 57.7728 41.8348 56.6973 41.8375C53.8556 41.8436 51.0142 41.9061 48.1749 42.025L47.6424 42.0475L48.0924 42.3325C50.4911 43.8556 52.9199 45.3309 55.3773 46.7574C56.4723 47.3874 57.4323 47.9124 58.2098 48.2999C58.623 48.5072 59.0441 48.6982 59.4723 48.8724C59.5062 48.8842 59.5403 48.8951 59.5748 48.9049ZM63.9048 33.5951C63.6621 32.6894 63.0695 31.9172 62.2575 31.4483C61.4455 30.9795 60.4805 30.8524 59.5748 31.0951L59.4723 31.1276C59.3973 31.1526 59.2998 31.1951 59.1723 31.2476C58.8471 31.3889 58.5261 31.5398 58.2098 31.7001C57.4323 32.0876 56.4723 32.6126 55.3773 33.2426C52.9199 34.6691 50.4912 36.1444 48.0924 37.6675L47.6424 37.9525L48.1724 37.9725C51.0125 38.0922 53.8547 38.1555 56.6973 38.1625C57.9598 38.16 59.0523 38.1325 59.9198 38.085C60.3815 38.0564 60.8418 38.0097 61.2998 37.945L61.4048 37.925C62.3105 37.6823 63.0827 37.0898 63.5515 36.2778C64.0203 35.4658 64.1474 34.5008 63.9048 33.5951ZM52.4999 57.4998C53.1629 58.1629 54.0622 58.5354 54.9999 58.5354C55.9375 58.5354 56.8368 58.1629 57.4998 57.4998C58.1629 56.8368 58.5353 55.9375 58.5353 54.9999C58.5353 54.0622 58.1629 53.1629 57.4998 52.4999L57.4198 52.4299C57.0555 52.147 56.6802 51.8784 56.2948 51.6249C55.5673 51.1424 54.6324 50.5724 53.5424 49.9374C51.3674 48.6724 48.6899 47.2249 46.0674 45.8424L45.5949 45.5949L45.8424 46.0674C47.2224 48.6874 48.6724 51.3674 49.9374 53.5424C50.5724 54.6324 51.1424 55.5673 51.6224 56.2923C51.8759 56.6777 52.1445 57.053 52.4274 57.4173L52.4999 57.4998ZM33.5951 16.0952C33.1383 16.2181 32.7107 16.4314 32.3378 16.7224C31.965 17.0135 31.6543 17.3765 31.4242 17.7898C31.1941 18.2031 31.0493 18.6584 30.9983 19.1287C30.9474 19.599 30.9913 20.0747 31.1276 20.5277L31.2501 20.8252C31.3551 21.0802 31.5051 21.4002 31.7001 21.7902C32.0876 22.5677 32.6126 23.5277 33.2401 24.6202C34.6676 27.0783 36.1437 29.5079 37.6675 31.9076L37.9525 32.3576L37.9725 31.8226C38.0923 28.9842 38.1557 26.1436 38.1625 23.3027C38.166 22.228 38.1402 21.1535 38.085 20.0802C38.0564 19.6186 38.0097 19.1582 37.945 18.7002L37.925 18.5952C37.6823 17.6895 37.0898 16.9173 36.2778 16.4485C35.4658 15.9797 34.5008 15.8526 33.5951 16.0952ZM42.075 18.5952L42.055 18.7002C41.9912 19.1574 41.9453 19.6169 41.9175 20.0777C41.8675 20.9477 41.84 22.0402 41.8375 23.3027C41.8435 26.1444 41.906 28.9858 42.025 31.8251L42.0475 32.3576L42.3325 31.9076C43.8556 29.5089 45.3309 27.0801 46.7574 24.6227C47.3874 23.5277 47.9124 22.5677 48.2999 21.7902C48.5072 21.377 48.6981 20.9558 48.8724 20.5277L48.9049 20.4252C49.0286 19.9756 49.0621 19.506 49.0035 19.0435C48.945 18.5809 48.7955 18.1345 48.5637 17.7299C48.3319 17.3254 48.0223 16.9707 47.6529 16.6862C47.2835 16.4018 46.8614 16.1932 46.411 16.0725C45.9607 15.9518 45.4909 15.9214 45.0287 15.9831C44.5665 16.0447 44.1211 16.1972 43.7181 16.4316C43.3151 16.6661 42.9624 16.978 42.6804 17.3493C42.3984 17.7206 42.1927 18.1441 42.075 18.5952ZM46.4049 63.9048C47.3106 63.6621 48.0828 63.0695 48.5517 62.2575C49.0205 61.4455 49.1476 60.4805 48.9049 59.5748L48.8724 59.4723C48.6982 59.0442 48.5072 58.623 48.2999 58.2098C47.9124 57.4323 47.3874 56.4723 46.7574 55.3773C45.3309 52.9199 43.8556 50.4912 42.3325 48.0924L42.0475 47.6424L42.025 48.1749C41.9061 51.0142 41.8436 53.8556 41.8375 56.6973C41.84 57.9598 41.8675 59.0523 41.915 59.9198C41.9434 60.3815 41.9901 60.8418 42.055 61.2998L42.075 61.4048C42.3177 62.3105 42.9102 63.0827 43.7222 63.5515C44.5342 64.0203 45.4992 64.1474 46.4049 63.9048ZM31.0951 59.5748C30.8594 60.4782 30.9907 61.4381 31.4602 62.2451C31.9297 63.052 32.6993 63.6406 33.6011 63.8822C34.5029 64.1238 35.4637 63.9989 36.2737 63.5348C37.0838 63.0707 37.6774 62.305 37.925 61.4048L37.945 61.2998C38.0086 60.8426 38.0545 60.3831 38.0825 59.9223C38.1385 58.8482 38.1652 57.7729 38.1625 56.6973C38.1567 53.8556 38.0942 51.0142 37.975 48.1749L37.9525 47.6424L37.6675 48.0924C36.1444 50.4911 34.6691 52.9199 33.2426 55.3773C32.6126 56.4723 32.0876 57.4323 31.7001 58.2098C31.4928 58.623 31.3018 59.0441 31.1276 59.4723C31.1159 59.5062 31.105 59.5404 31.0951 59.5748ZM36.25 43.75C37.2446 44.7445 38.5935 45.3033 40 45.3033C41.4065 45.3033 42.7554 44.7445 43.75 43.75C44.7445 42.7554 45.3032 41.4065 45.3032 40C45.3032 38.5935 44.7445 37.2446 43.75 36.25C42.7554 35.2555 41.4065 34.6968 40 34.6968C38.5935 34.6968 37.2446 35.2555 36.25 36.25C35.2555 37.2446 34.6968 38.5935 34.6968 40C34.6968 41.4065 35.2555 42.7554 36.25 43.75Z" fill="#FDE905" stroke="#8E8B8B" stroke-width="0.4" mask="url(#path-2-inside-2_38_2)"/>
</svg>
